G04 #@! TF.GenerationSoftware,KiCad,Pcbnew,(5.1.5)-3*
G04 #@! TF.CreationDate,2020-01-23T23:17:30-08:00*
G04 #@! TF.ProjectId,sdInterface,7364496e-7465-4726-9661-63652e6b6963,rev?*
G04 #@! TF.SameCoordinates,Original*
G04 #@! TF.FileFunction,Copper,L1,Top*
G04 #@! TF.FilePolarity,Positive*
%FSLAX46Y46*%
G04 Gerber Fmt 4.6, Leading zero omitted, Abs format (unit mm)*
G04 Created by KiCad (PCBNEW (5.1.5)-3) date 2020-01-23 23:17:30*
%MOMM*%
%LPD*%
G04 APERTURE LIST*
%ADD10C,0.100000*%
%ADD11R,1.000000X1.500000*%
%ADD12R,1.600000X1.600000*%
%ADD13O,1.600000X1.600000*%
%ADD14R,1.500000X1.000000*%
%ADD15R,1.500000X0.700000*%
%ADD16R,2.800000X1.500000*%
%ADD17C,0.800000*%
%ADD18C,0.250000*%
G04 APERTURE END LIST*
G04 #@! TA.AperFunction,SMDPad,CuDef*
D10*
G36*
X104050000Y-107550000D02*
G01*
X103500000Y-107550000D01*
X103500000Y-107549398D01*
X103475466Y-107549398D01*
X103426635Y-107544588D01*
X103378510Y-107535016D01*
X103331555Y-107520772D01*
X103286222Y-107501995D01*
X103242949Y-107478864D01*
X103202150Y-107451604D01*
X103164221Y-107420476D01*
X103129524Y-107385779D01*
X103098396Y-107347850D01*
X103071136Y-107307051D01*
X103048005Y-107263778D01*
X103029228Y-107218445D01*
X103014984Y-107171490D01*
X103005412Y-107123365D01*
X103000602Y-107074534D01*
X103000602Y-107050000D01*
X103000000Y-107050000D01*
X103000000Y-106550000D01*
X103000602Y-106550000D01*
X103000602Y-106525466D01*
X103005412Y-106476635D01*
X103014984Y-106428510D01*
X103029228Y-106381555D01*
X103048005Y-106336222D01*
X103071136Y-106292949D01*
X103098396Y-106252150D01*
X103129524Y-106214221D01*
X103164221Y-106179524D01*
X103202150Y-106148396D01*
X103242949Y-106121136D01*
X103286222Y-106098005D01*
X103331555Y-106079228D01*
X103378510Y-106064984D01*
X103426635Y-106055412D01*
X103475466Y-106050602D01*
X103500000Y-106050602D01*
X103500000Y-106050000D01*
X104050000Y-106050000D01*
X104050000Y-107550000D01*
G37*
G04 #@! TD.AperFunction*
G04 #@! TA.AperFunction,SMDPad,CuDef*
G36*
X106100000Y-106050602D02*
G01*
X106124534Y-106050602D01*
X106173365Y-106055412D01*
X106221490Y-106064984D01*
X106268445Y-106079228D01*
X106313778Y-106098005D01*
X106357051Y-106121136D01*
X106397850Y-106148396D01*
X106435779Y-106179524D01*
X106470476Y-106214221D01*
X106501604Y-106252150D01*
X106528864Y-106292949D01*
X106551995Y-106336222D01*
X106570772Y-106381555D01*
X106585016Y-106428510D01*
X106594588Y-106476635D01*
X106599398Y-106525466D01*
X106599398Y-106550000D01*
X106600000Y-106550000D01*
X106600000Y-107050000D01*
X106599398Y-107050000D01*
X106599398Y-107074534D01*
X106594588Y-107123365D01*
X106585016Y-107171490D01*
X106570772Y-107218445D01*
X106551995Y-107263778D01*
X106528864Y-107307051D01*
X106501604Y-107347850D01*
X106470476Y-107385779D01*
X106435779Y-107420476D01*
X106397850Y-107451604D01*
X106357051Y-107478864D01*
X106313778Y-107501995D01*
X106268445Y-107520772D01*
X106221490Y-107535016D01*
X106173365Y-107544588D01*
X106124534Y-107549398D01*
X106100000Y-107549398D01*
X106100000Y-107550000D01*
X105550000Y-107550000D01*
X105550000Y-106050000D01*
X106100000Y-106050000D01*
X106100000Y-106050602D01*
G37*
G04 #@! TD.AperFunction*
D11*
X104800000Y-106800000D03*
D12*
X123600000Y-75600000D03*
D13*
X138840000Y-103540000D03*
X123600000Y-78140000D03*
X138840000Y-101000000D03*
X123600000Y-80680000D03*
X138840000Y-98460000D03*
X123600000Y-83220000D03*
X138840000Y-95920000D03*
X123600000Y-85760000D03*
X138840000Y-93380000D03*
X123600000Y-88300000D03*
X138840000Y-90840000D03*
X123600000Y-90840000D03*
X138840000Y-88300000D03*
X123600000Y-93380000D03*
X138840000Y-85760000D03*
X123600000Y-95920000D03*
X138840000Y-83220000D03*
X123600000Y-98460000D03*
X138840000Y-80680000D03*
X123600000Y-101000000D03*
X138840000Y-78140000D03*
X123600000Y-103540000D03*
X138840000Y-75600000D03*
D14*
X92225000Y-81825000D03*
X92225000Y-84325000D03*
X92225000Y-86825000D03*
X92225000Y-89325000D03*
X92225000Y-91825000D03*
X92225000Y-94325000D03*
X92225000Y-96755000D03*
X92225000Y-98455000D03*
X92225000Y-79325000D03*
D15*
X92225000Y-99755000D03*
X92225000Y-100955000D03*
D16*
X94025000Y-77250000D03*
X115525000Y-75050000D03*
X115525000Y-102350000D03*
X94025000Y-102350000D03*
D17*
X94025000Y-102350000D03*
X94025000Y-77250000D03*
X121100000Y-74400000D03*
X121800000Y-88200000D03*
X121300000Y-101000000D03*
X121624999Y-93500000D03*
X120500000Y-99400000D03*
X120825000Y-90900000D03*
X120100000Y-96100000D03*
X120400000Y-85900000D03*
X118600000Y-91700000D03*
X118600000Y-80900000D03*
X104800000Y-104900000D03*
X102000000Y-81800000D03*
X125300000Y-106300000D03*
X119200000Y-94100000D03*
X119900000Y-75700000D03*
D18*
X95675000Y-102350000D02*
X115525000Y-102350000D01*
X94025000Y-102350000D02*
X95675000Y-102350000D01*
X94025000Y-76250000D02*
X95275000Y-75000000D01*
X94025000Y-77250000D02*
X94025000Y-76250000D01*
X95325000Y-75050000D02*
X115525000Y-75050000D01*
X95275000Y-75000000D02*
X95325000Y-75050000D01*
X117825000Y-74400000D02*
X121100000Y-74400000D01*
X115525000Y-75050000D02*
X117175000Y-75050000D01*
X117175000Y-75050000D02*
X117825000Y-74400000D01*
X123500000Y-88200000D02*
X123600000Y-88300000D01*
X121800000Y-88200000D02*
X123500000Y-88200000D01*
X121224999Y-101075001D02*
X121300000Y-101000000D01*
X93345001Y-101075001D02*
X121224999Y-101075001D01*
X92225000Y-100955000D02*
X93225000Y-100955000D01*
X93225000Y-100955000D02*
X93345001Y-101075001D01*
X123480000Y-93500000D02*
X123600000Y-93380000D01*
X121624999Y-93500000D02*
X123480000Y-93500000D01*
X120424999Y-99324999D02*
X120500000Y-99400000D01*
X93655001Y-99324999D02*
X120424999Y-99324999D01*
X92225000Y-99755000D02*
X93225000Y-99755000D01*
X93225000Y-99755000D02*
X93655001Y-99324999D01*
X123540000Y-90900000D02*
X123600000Y-90840000D01*
X120825000Y-90900000D02*
X123540000Y-90900000D01*
X93225000Y-96755000D02*
X93280000Y-96700000D01*
X92225000Y-96755000D02*
X93225000Y-96755000D01*
X93280000Y-96700000D02*
X119500000Y-96700000D01*
X119500000Y-96700000D02*
X120100000Y-96100000D01*
X123460000Y-85900000D02*
X123600000Y-85760000D01*
X120400000Y-85900000D02*
X123460000Y-85900000D01*
X92225000Y-91825000D02*
X118475000Y-91825000D01*
X118475000Y-91825000D02*
X118600000Y-91700000D01*
X123380000Y-80900000D02*
X123600000Y-80680000D01*
X118600000Y-80900000D02*
X123380000Y-80900000D01*
X133350010Y-84986400D02*
X133350010Y-78150010D01*
X123059999Y-89425001D02*
X128911409Y-89425001D01*
X128911409Y-89425001D02*
X133350010Y-84986400D01*
X92225000Y-89325000D02*
X122959998Y-89325000D01*
X122959998Y-89325000D02*
X123059999Y-89425001D01*
X135900020Y-75600000D02*
X138840000Y-75600000D01*
X133350010Y-78150010D02*
X135900020Y-75600000D01*
X122495000Y-84325000D02*
X123600000Y-83220000D01*
X92225000Y-84325000D02*
X122495000Y-84325000D01*
X104800000Y-106800000D02*
X104800000Y-104900000D01*
X92250000Y-81800000D02*
X92225000Y-81825000D01*
X102000000Y-81800000D02*
X92250000Y-81800000D01*
X106100000Y-106800000D02*
X124800000Y-106800000D01*
X124800000Y-106800000D02*
X125300000Y-106300000D01*
X103827418Y-107875010D02*
X138124990Y-107875010D01*
X103500000Y-106800000D02*
X103500000Y-107547592D01*
X103500000Y-107547592D02*
X103827418Y-107875010D01*
X138840000Y-107160000D02*
X138840000Y-103540000D01*
X138124990Y-107875010D02*
X138840000Y-107160000D01*
X123059999Y-86885001D02*
X130814999Y-86885001D01*
X92225000Y-86825000D02*
X122999998Y-86825000D01*
X122999998Y-86825000D02*
X123059999Y-86885001D01*
X130814999Y-86885001D02*
X132900000Y-84800000D01*
X132900000Y-84800000D02*
X132900000Y-78900000D01*
X129600000Y-75600000D02*
X123600000Y-75600000D01*
X132900000Y-78900000D02*
X129600000Y-75600000D01*
X92225000Y-94325000D02*
X118975000Y-94325000D01*
X118975000Y-94325000D02*
X119200000Y-94100000D01*
X123500000Y-75700000D02*
X123600000Y-75600000D01*
X119900000Y-75700000D02*
X123500000Y-75700000D01*
M02*
