G04 #@! TF.GenerationSoftware,KiCad,Pcbnew,(5.1.5)-3*
G04 #@! TF.CreationDate,2020-01-24T22:37:54-08:00*
G04 #@! TF.ProjectId,sdInterface,7364496e-7465-4726-9661-63652e6b6963,rev?*
G04 #@! TF.SameCoordinates,Original*
G04 #@! TF.FileFunction,Paste,Top*
G04 #@! TF.FilePolarity,Positive*
%FSLAX46Y46*%
G04 Gerber Fmt 4.6, Leading zero omitted, Abs format (unit mm)*
G04 Created by KiCad (PCBNEW (5.1.5)-3) date 2020-01-24 22:37:54*
%MOMM*%
%LPD*%
G04 APERTURE LIST*
%ADD10R,1.500000X2.000000*%
%ADD11R,3.800000X2.000000*%
%ADD12C,0.100000*%
%ADD13R,1.500000X1.000000*%
%ADD14R,1.500000X0.700000*%
%ADD15R,2.800000X1.500000*%
G04 APERTURE END LIST*
D10*
X133850000Y-93950000D03*
X129250000Y-93950000D03*
X131550000Y-93950000D03*
D11*
X131550000Y-100250000D03*
D12*
G36*
X128699505Y-90101204D02*
G01*
X128723773Y-90104804D01*
X128747572Y-90110765D01*
X128770671Y-90119030D01*
X128792850Y-90129520D01*
X128813893Y-90142132D01*
X128833599Y-90156747D01*
X128851777Y-90173223D01*
X128868253Y-90191401D01*
X128882868Y-90211107D01*
X128895480Y-90232150D01*
X128905970Y-90254329D01*
X128914235Y-90277428D01*
X128920196Y-90301227D01*
X128923796Y-90325495D01*
X128925000Y-90349999D01*
X128925000Y-91250001D01*
X128923796Y-91274505D01*
X128920196Y-91298773D01*
X128914235Y-91322572D01*
X128905970Y-91345671D01*
X128895480Y-91367850D01*
X128882868Y-91388893D01*
X128868253Y-91408599D01*
X128851777Y-91426777D01*
X128833599Y-91443253D01*
X128813893Y-91457868D01*
X128792850Y-91470480D01*
X128770671Y-91480970D01*
X128747572Y-91489235D01*
X128723773Y-91495196D01*
X128699505Y-91498796D01*
X128675001Y-91500000D01*
X128024999Y-91500000D01*
X128000495Y-91498796D01*
X127976227Y-91495196D01*
X127952428Y-91489235D01*
X127929329Y-91480970D01*
X127907150Y-91470480D01*
X127886107Y-91457868D01*
X127866401Y-91443253D01*
X127848223Y-91426777D01*
X127831747Y-91408599D01*
X127817132Y-91388893D01*
X127804520Y-91367850D01*
X127794030Y-91345671D01*
X127785765Y-91322572D01*
X127779804Y-91298773D01*
X127776204Y-91274505D01*
X127775000Y-91250001D01*
X127775000Y-90349999D01*
X127776204Y-90325495D01*
X127779804Y-90301227D01*
X127785765Y-90277428D01*
X127794030Y-90254329D01*
X127804520Y-90232150D01*
X127817132Y-90211107D01*
X127831747Y-90191401D01*
X127848223Y-90173223D01*
X127866401Y-90156747D01*
X127886107Y-90142132D01*
X127907150Y-90129520D01*
X127929329Y-90119030D01*
X127952428Y-90110765D01*
X127976227Y-90104804D01*
X128000495Y-90101204D01*
X128024999Y-90100000D01*
X128675001Y-90100000D01*
X128699505Y-90101204D01*
G37*
G36*
X130749505Y-90101204D02*
G01*
X130773773Y-90104804D01*
X130797572Y-90110765D01*
X130820671Y-90119030D01*
X130842850Y-90129520D01*
X130863893Y-90142132D01*
X130883599Y-90156747D01*
X130901777Y-90173223D01*
X130918253Y-90191401D01*
X130932868Y-90211107D01*
X130945480Y-90232150D01*
X130955970Y-90254329D01*
X130964235Y-90277428D01*
X130970196Y-90301227D01*
X130973796Y-90325495D01*
X130975000Y-90349999D01*
X130975000Y-91250001D01*
X130973796Y-91274505D01*
X130970196Y-91298773D01*
X130964235Y-91322572D01*
X130955970Y-91345671D01*
X130945480Y-91367850D01*
X130932868Y-91388893D01*
X130918253Y-91408599D01*
X130901777Y-91426777D01*
X130883599Y-91443253D01*
X130863893Y-91457868D01*
X130842850Y-91470480D01*
X130820671Y-91480970D01*
X130797572Y-91489235D01*
X130773773Y-91495196D01*
X130749505Y-91498796D01*
X130725001Y-91500000D01*
X130074999Y-91500000D01*
X130050495Y-91498796D01*
X130026227Y-91495196D01*
X130002428Y-91489235D01*
X129979329Y-91480970D01*
X129957150Y-91470480D01*
X129936107Y-91457868D01*
X129916401Y-91443253D01*
X129898223Y-91426777D01*
X129881747Y-91408599D01*
X129867132Y-91388893D01*
X129854520Y-91367850D01*
X129844030Y-91345671D01*
X129835765Y-91322572D01*
X129829804Y-91298773D01*
X129826204Y-91274505D01*
X129825000Y-91250001D01*
X129825000Y-90349999D01*
X129826204Y-90325495D01*
X129829804Y-90301227D01*
X129835765Y-90277428D01*
X129844030Y-90254329D01*
X129854520Y-90232150D01*
X129867132Y-90211107D01*
X129881747Y-90191401D01*
X129898223Y-90173223D01*
X129916401Y-90156747D01*
X129936107Y-90142132D01*
X129957150Y-90129520D01*
X129979329Y-90119030D01*
X130002428Y-90110765D01*
X130026227Y-90104804D01*
X130050495Y-90101204D01*
X130074999Y-90100000D01*
X130725001Y-90100000D01*
X130749505Y-90101204D01*
G37*
G36*
X133399505Y-90101204D02*
G01*
X133423773Y-90104804D01*
X133447572Y-90110765D01*
X133470671Y-90119030D01*
X133492850Y-90129520D01*
X133513893Y-90142132D01*
X133533599Y-90156747D01*
X133551777Y-90173223D01*
X133568253Y-90191401D01*
X133582868Y-90211107D01*
X133595480Y-90232150D01*
X133605970Y-90254329D01*
X133614235Y-90277428D01*
X133620196Y-90301227D01*
X133623796Y-90325495D01*
X133625000Y-90349999D01*
X133625000Y-91250001D01*
X133623796Y-91274505D01*
X133620196Y-91298773D01*
X133614235Y-91322572D01*
X133605970Y-91345671D01*
X133595480Y-91367850D01*
X133582868Y-91388893D01*
X133568253Y-91408599D01*
X133551777Y-91426777D01*
X133533599Y-91443253D01*
X133513893Y-91457868D01*
X133492850Y-91470480D01*
X133470671Y-91480970D01*
X133447572Y-91489235D01*
X133423773Y-91495196D01*
X133399505Y-91498796D01*
X133375001Y-91500000D01*
X132724999Y-91500000D01*
X132700495Y-91498796D01*
X132676227Y-91495196D01*
X132652428Y-91489235D01*
X132629329Y-91480970D01*
X132607150Y-91470480D01*
X132586107Y-91457868D01*
X132566401Y-91443253D01*
X132548223Y-91426777D01*
X132531747Y-91408599D01*
X132517132Y-91388893D01*
X132504520Y-91367850D01*
X132494030Y-91345671D01*
X132485765Y-91322572D01*
X132479804Y-91298773D01*
X132476204Y-91274505D01*
X132475000Y-91250001D01*
X132475000Y-90349999D01*
X132476204Y-90325495D01*
X132479804Y-90301227D01*
X132485765Y-90277428D01*
X132494030Y-90254329D01*
X132504520Y-90232150D01*
X132517132Y-90211107D01*
X132531747Y-90191401D01*
X132548223Y-90173223D01*
X132566401Y-90156747D01*
X132586107Y-90142132D01*
X132607150Y-90129520D01*
X132629329Y-90119030D01*
X132652428Y-90110765D01*
X132676227Y-90104804D01*
X132700495Y-90101204D01*
X132724999Y-90100000D01*
X133375001Y-90100000D01*
X133399505Y-90101204D01*
G37*
G36*
X135449505Y-90101204D02*
G01*
X135473773Y-90104804D01*
X135497572Y-90110765D01*
X135520671Y-90119030D01*
X135542850Y-90129520D01*
X135563893Y-90142132D01*
X135583599Y-90156747D01*
X135601777Y-90173223D01*
X135618253Y-90191401D01*
X135632868Y-90211107D01*
X135645480Y-90232150D01*
X135655970Y-90254329D01*
X135664235Y-90277428D01*
X135670196Y-90301227D01*
X135673796Y-90325495D01*
X135675000Y-90349999D01*
X135675000Y-91250001D01*
X135673796Y-91274505D01*
X135670196Y-91298773D01*
X135664235Y-91322572D01*
X135655970Y-91345671D01*
X135645480Y-91367850D01*
X135632868Y-91388893D01*
X135618253Y-91408599D01*
X135601777Y-91426777D01*
X135583599Y-91443253D01*
X135563893Y-91457868D01*
X135542850Y-91470480D01*
X135520671Y-91480970D01*
X135497572Y-91489235D01*
X135473773Y-91495196D01*
X135449505Y-91498796D01*
X135425001Y-91500000D01*
X134774999Y-91500000D01*
X134750495Y-91498796D01*
X134726227Y-91495196D01*
X134702428Y-91489235D01*
X134679329Y-91480970D01*
X134657150Y-91470480D01*
X134636107Y-91457868D01*
X134616401Y-91443253D01*
X134598223Y-91426777D01*
X134581747Y-91408599D01*
X134567132Y-91388893D01*
X134554520Y-91367850D01*
X134544030Y-91345671D01*
X134535765Y-91322572D01*
X134529804Y-91298773D01*
X134526204Y-91274505D01*
X134525000Y-91250001D01*
X134525000Y-90349999D01*
X134526204Y-90325495D01*
X134529804Y-90301227D01*
X134535765Y-90277428D01*
X134544030Y-90254329D01*
X134554520Y-90232150D01*
X134567132Y-90211107D01*
X134581747Y-90191401D01*
X134598223Y-90173223D01*
X134616401Y-90156747D01*
X134636107Y-90142132D01*
X134657150Y-90129520D01*
X134679329Y-90119030D01*
X134702428Y-90110765D01*
X134726227Y-90104804D01*
X134750495Y-90101204D01*
X134774999Y-90100000D01*
X135425001Y-90100000D01*
X135449505Y-90101204D01*
G37*
D13*
X92225000Y-81825000D03*
X92225000Y-84325000D03*
X92225000Y-86825000D03*
X92225000Y-89325000D03*
X92225000Y-91825000D03*
X92225000Y-94325000D03*
X92225000Y-96755000D03*
X92225000Y-98455000D03*
X92225000Y-79325000D03*
D14*
X92225000Y-99755000D03*
X92225000Y-100955000D03*
D15*
X94025000Y-77250000D03*
X115525000Y-75050000D03*
X115525000Y-102350000D03*
X94025000Y-102350000D03*
M02*
