M48
; DRILL file {KiCad (5.1.5)-3} date 1/24/2020 10:38:12 PM
; FORMAT={-:-/ absolute / inch / decimal}
; #@! TF.CreationDate,2020-01-24T22:38:12-08:00
; #@! TF.GenerationSoftware,Kicad,Pcbnew,(5.1.5)-3
FMAT,2
INCH
T1C0.0157
T2C0.0315
T3C0.0394
T4C0.0433
T5C0.0630
%
G90
G05
T1
X3.7018Y-3.0413
X3.7018Y-4.0295
X4.0157Y-3.2205
X4.126Y-4.1299
X4.6693Y-3.185
X4.6693Y-3.6102
X4.6929Y-3.7047
X4.7205Y-2.9803
X4.7283Y-3.7835
X4.7402Y-3.3819
X4.7441Y-3.9134
X4.7569Y-3.5787
X4.7677Y-2.9291
X4.7756Y-3.9764
X4.7884Y-3.6811
X4.7953Y-3.4724
X4.9331Y-4.185
T2
X4.8661Y-2.9764
X4.8661Y-3.0764
X4.8661Y-3.1764
X4.8661Y-3.2764
X4.8661Y-3.3764
X4.8661Y-3.4764
X4.8661Y-3.5764
X4.8661Y-3.6764
X4.8661Y-3.7764
X4.8661Y-3.8764
X4.8661Y-3.9764
X4.8661Y-4.0764
X5.4661Y-2.9764
X5.4661Y-3.0764
X5.4661Y-3.1764
X5.4661Y-3.2764
X5.4661Y-3.3764
X5.4661Y-3.4764
X5.4661Y-3.5764
X5.4661Y-3.6764
X5.4661Y-3.7764
X5.4661Y-3.8764
X5.4661Y-3.9764
X5.4661Y-4.0764
T3
X4.4528Y-4.2087
X4.5528Y-4.2087
X4.6528Y-4.2087
T4
X3.7411Y-3.9449
T5
X3.7411Y-3.1181
T0
M30
