G04 #@! TF.GenerationSoftware,KiCad,Pcbnew,(5.1.5)-3*
G04 #@! TF.CreationDate,2020-01-24T22:37:54-08:00*
G04 #@! TF.ProjectId,sdInterface,7364496e-7465-4726-9661-63652e6b6963,rev?*
G04 #@! TF.SameCoordinates,Original*
G04 #@! TF.FileFunction,Copper,L2,Bot*
G04 #@! TF.FilePolarity,Positive*
%FSLAX46Y46*%
G04 Gerber Fmt 4.6, Leading zero omitted, Abs format (unit mm)*
G04 Created by KiCad (PCBNEW (5.1.5)-3) date 2020-01-24 22:37:54*
%MOMM*%
%LPD*%
G04 APERTURE LIST*
%ADD10O,1.700000X1.700000*%
%ADD11R,1.700000X1.700000*%
%ADD12R,1.600000X1.600000*%
%ADD13O,1.600000X1.600000*%
%ADD14C,0.800000*%
%ADD15C,0.250000*%
G04 APERTURE END LIST*
D10*
X118180000Y-106900000D03*
X115640000Y-106900000D03*
D11*
X113100000Y-106900000D03*
D12*
X123600000Y-75600000D03*
D13*
X138840000Y-103540000D03*
X123600000Y-78140000D03*
X138840000Y-101000000D03*
X123600000Y-80680000D03*
X138840000Y-98460000D03*
X123600000Y-83220000D03*
X138840000Y-95920000D03*
X123600000Y-85760000D03*
X138840000Y-93380000D03*
X123600000Y-88300000D03*
X138840000Y-90840000D03*
X123600000Y-90840000D03*
X138840000Y-88300000D03*
X123600000Y-93380000D03*
X138840000Y-85760000D03*
X123600000Y-95920000D03*
X138840000Y-83220000D03*
X123600000Y-98460000D03*
X138840000Y-80680000D03*
X123600000Y-101000000D03*
X138840000Y-78140000D03*
X123600000Y-103540000D03*
X138840000Y-75600000D03*
D14*
X94025000Y-102350000D03*
X94025000Y-77250000D03*
X121100000Y-74400000D03*
X121800000Y-88200000D03*
X121300000Y-101000000D03*
X121624999Y-93500000D03*
X120500000Y-99400000D03*
X120825000Y-90900000D03*
X120100000Y-96100000D03*
X120400000Y-85900000D03*
X118600000Y-91700000D03*
X118600000Y-80900000D03*
X104800000Y-104900000D03*
X102000000Y-81800000D03*
X125300000Y-106300000D03*
X119200000Y-94100000D03*
X119900000Y-75700000D03*
D15*
X94025000Y-102350000D02*
X95675000Y-102350000D01*
X95675000Y-102350000D02*
X96150001Y-101874999D01*
X96150001Y-101874999D02*
X96150001Y-78659999D01*
X96150001Y-78659999D02*
X94740002Y-77250000D01*
X94740002Y-77250000D02*
X94025000Y-77250000D01*
X121499999Y-87899999D02*
X121800000Y-88200000D01*
X121100000Y-74400000D02*
X121499999Y-74799999D01*
X121499999Y-74799999D02*
X121499999Y-87899999D01*
X121300000Y-101000000D02*
X121699999Y-100600001D01*
X121699999Y-93575000D02*
X121624999Y-93500000D01*
X121699999Y-100600001D02*
X121699999Y-93575000D01*
X120899999Y-90974999D02*
X120825000Y-90900000D01*
X120500000Y-99400000D02*
X120899999Y-99000001D01*
X120899999Y-99000001D02*
X120899999Y-90974999D01*
X120100000Y-96100000D02*
X120100000Y-86200000D01*
X120100000Y-86200000D02*
X120400000Y-85900000D01*
X118600000Y-91700000D02*
X118600000Y-80900000D01*
X104800000Y-104900000D02*
X104800000Y-104334315D01*
X104800000Y-104334315D02*
X104800000Y-84600000D01*
X104800000Y-84600000D02*
X102000000Y-81800000D01*
X125300000Y-79840000D02*
X123600000Y-78140000D01*
X125300000Y-106300000D02*
X125300000Y-79840000D01*
X119599999Y-76000001D02*
X119900000Y-75700000D01*
X119200000Y-94100000D02*
X119599999Y-93700001D01*
X119599999Y-93700001D02*
X119599999Y-76000001D01*
M02*
