M48
; DRILL file {KiCad (5.1.5)-3} date 1/25/2020 10:14:44 AM
; FORMAT={-:-/ absolute / inch / decimal}
; #@! TF.CreationDate,2020-01-25T10:14:44-08:00
; #@! TF.GenerationSoftware,Kicad,Pcbnew,(5.1.5)-3
FMAT,2
INCH
T1C0.0157
T2C0.0315
T3C0.0394
T4C0.0433
T5C0.0630
T6C0.0866
%
G90
G05
T1
X2.8494Y-2.7579
X2.8504Y-3.8307
X3.7008Y-3.5709
X3.8346Y-3.0709
X3.8386Y-3.3661
X4.1339Y-2.8898
X4.3189Y-3.7854
T2
X3.9961Y-2.7874
X3.9961Y-2.8874
X3.9961Y-2.9874
X3.9961Y-3.0874
X3.9961Y-3.1874
X3.9961Y-3.2874
X3.9961Y-3.3874
X3.9961Y-3.4874
X3.9961Y-3.5874
X3.9961Y-3.6874
X3.9961Y-3.7874
X3.9961Y-3.8874
X4.5961Y-2.7874
X4.5961Y-2.8874
X4.5961Y-2.9874
X4.5961Y-3.0874
X4.5961Y-3.1874
X4.5961Y-3.2874
X4.5961Y-3.3874
X4.5961Y-3.4874
X4.5961Y-3.5874
X4.5961Y-3.6874
X4.5961Y-3.7874
X4.5961Y-3.8874
T3
X3.3984Y-3.9606
X3.4984Y-3.9606
X3.5984Y-3.9606
T4
X3.6565Y-2.8425
T5
X3.6565Y-3.6693
T6
X4.4094Y-2.874
X2.874Y-4.0079
T0
M30
