G04 #@! TF.GenerationSoftware,KiCad,Pcbnew,(5.1.5)-3*
G04 #@! TF.CreationDate,2020-01-25T10:14:26-08:00*
G04 #@! TF.ProjectId,sdInterface,7364496e-7465-4726-9661-63652e6b6963,rev?*
G04 #@! TF.SameCoordinates,Original*
G04 #@! TF.FileFunction,Soldermask,Bot*
G04 #@! TF.FilePolarity,Negative*
%FSLAX46Y46*%
G04 Gerber Fmt 4.6, Leading zero omitted, Abs format (unit mm)*
G04 Created by KiCad (PCBNEW (5.1.5)-3) date 2020-01-25 10:14:26*
%MOMM*%
%LPD*%
G04 APERTURE LIST*
%ADD10C,0.100000*%
G04 APERTURE END LIST*
D10*
G36*
X73224549Y-100671116D02*
G01*
X73335734Y-100693232D01*
X73545203Y-100779997D01*
X73733720Y-100905960D01*
X73894040Y-101066280D01*
X74020003Y-101254797D01*
X74106768Y-101464266D01*
X74151000Y-101686636D01*
X74151000Y-101913364D01*
X74106768Y-102135734D01*
X74020003Y-102345203D01*
X73894040Y-102533720D01*
X73733720Y-102694040D01*
X73545203Y-102820003D01*
X73335734Y-102906768D01*
X73224549Y-102928884D01*
X73113365Y-102951000D01*
X72886635Y-102951000D01*
X72775451Y-102928884D01*
X72664266Y-102906768D01*
X72454797Y-102820003D01*
X72266280Y-102694040D01*
X72105960Y-102533720D01*
X71979997Y-102345203D01*
X71893232Y-102135734D01*
X71849000Y-101913364D01*
X71849000Y-101686636D01*
X71893232Y-101464266D01*
X71979997Y-101254797D01*
X72105960Y-101066280D01*
X72266280Y-100905960D01*
X72454797Y-100779997D01*
X72664266Y-100693232D01*
X72775451Y-100671116D01*
X72886635Y-100649000D01*
X73113365Y-100649000D01*
X73224549Y-100671116D01*
G37*
G36*
X86433512Y-99703927D02*
G01*
X86582812Y-99733624D01*
X86746784Y-99801544D01*
X86894354Y-99900147D01*
X87019853Y-100025646D01*
X87118456Y-100173216D01*
X87186376Y-100337188D01*
X87221000Y-100511259D01*
X87221000Y-100688741D01*
X87186376Y-100862812D01*
X87118456Y-101026784D01*
X87019853Y-101174354D01*
X86894354Y-101299853D01*
X86746784Y-101398456D01*
X86582812Y-101466376D01*
X86433512Y-101496073D01*
X86408742Y-101501000D01*
X86231258Y-101501000D01*
X86206488Y-101496073D01*
X86057188Y-101466376D01*
X85893216Y-101398456D01*
X85745646Y-101299853D01*
X85620147Y-101174354D01*
X85521544Y-101026784D01*
X85453624Y-100862812D01*
X85419000Y-100688741D01*
X85419000Y-100511259D01*
X85453624Y-100337188D01*
X85521544Y-100173216D01*
X85620147Y-100025646D01*
X85745646Y-99900147D01*
X85893216Y-99801544D01*
X86057188Y-99733624D01*
X86206488Y-99703927D01*
X86231258Y-99699000D01*
X86408742Y-99699000D01*
X86433512Y-99703927D01*
G37*
G36*
X88973512Y-99703927D02*
G01*
X89122812Y-99733624D01*
X89286784Y-99801544D01*
X89434354Y-99900147D01*
X89559853Y-100025646D01*
X89658456Y-100173216D01*
X89726376Y-100337188D01*
X89761000Y-100511259D01*
X89761000Y-100688741D01*
X89726376Y-100862812D01*
X89658456Y-101026784D01*
X89559853Y-101174354D01*
X89434354Y-101299853D01*
X89286784Y-101398456D01*
X89122812Y-101466376D01*
X88973512Y-101496073D01*
X88948742Y-101501000D01*
X88771258Y-101501000D01*
X88746488Y-101496073D01*
X88597188Y-101466376D01*
X88433216Y-101398456D01*
X88285646Y-101299853D01*
X88160147Y-101174354D01*
X88061544Y-101026784D01*
X87993624Y-100862812D01*
X87959000Y-100688741D01*
X87959000Y-100511259D01*
X87993624Y-100337188D01*
X88061544Y-100173216D01*
X88160147Y-100025646D01*
X88285646Y-99900147D01*
X88433216Y-99801544D01*
X88597188Y-99733624D01*
X88746488Y-99703927D01*
X88771258Y-99699000D01*
X88948742Y-99699000D01*
X88973512Y-99703927D01*
G37*
G36*
X92301000Y-101501000D02*
G01*
X90499000Y-101501000D01*
X90499000Y-99699000D01*
X92301000Y-99699000D01*
X92301000Y-101501000D01*
G37*
G36*
X101748228Y-97921703D02*
G01*
X101903100Y-97985853D01*
X102042481Y-98078985D01*
X102161015Y-98197519D01*
X102254147Y-98336900D01*
X102318297Y-98491772D01*
X102351000Y-98656184D01*
X102351000Y-98823816D01*
X102318297Y-98988228D01*
X102254147Y-99143100D01*
X102161015Y-99282481D01*
X102042481Y-99401015D01*
X101903100Y-99494147D01*
X101748228Y-99558297D01*
X101583816Y-99591000D01*
X101416184Y-99591000D01*
X101251772Y-99558297D01*
X101096900Y-99494147D01*
X100957519Y-99401015D01*
X100838985Y-99282481D01*
X100745853Y-99143100D01*
X100681703Y-98988228D01*
X100649000Y-98823816D01*
X100649000Y-98656184D01*
X100681703Y-98491772D01*
X100745853Y-98336900D01*
X100838985Y-98197519D01*
X100957519Y-98078985D01*
X101096900Y-97985853D01*
X101251772Y-97921703D01*
X101416184Y-97889000D01*
X101583816Y-97889000D01*
X101748228Y-97921703D01*
G37*
G36*
X116988228Y-97921703D02*
G01*
X117143100Y-97985853D01*
X117282481Y-98078985D01*
X117401015Y-98197519D01*
X117494147Y-98336900D01*
X117558297Y-98491772D01*
X117591000Y-98656184D01*
X117591000Y-98823816D01*
X117558297Y-98988228D01*
X117494147Y-99143100D01*
X117401015Y-99282481D01*
X117282481Y-99401015D01*
X117143100Y-99494147D01*
X116988228Y-99558297D01*
X116823816Y-99591000D01*
X116656184Y-99591000D01*
X116491772Y-99558297D01*
X116336900Y-99494147D01*
X116197519Y-99401015D01*
X116078985Y-99282481D01*
X115985853Y-99143100D01*
X115921703Y-98988228D01*
X115889000Y-98823816D01*
X115889000Y-98656184D01*
X115921703Y-98491772D01*
X115985853Y-98336900D01*
X116078985Y-98197519D01*
X116197519Y-98078985D01*
X116336900Y-97985853D01*
X116491772Y-97921703D01*
X116656184Y-97889000D01*
X116823816Y-97889000D01*
X116988228Y-97921703D01*
G37*
G36*
X116988228Y-95381703D02*
G01*
X117143100Y-95445853D01*
X117282481Y-95538985D01*
X117401015Y-95657519D01*
X117494147Y-95796900D01*
X117558297Y-95951772D01*
X117591000Y-96116184D01*
X117591000Y-96283816D01*
X117558297Y-96448228D01*
X117494147Y-96603100D01*
X117401015Y-96742481D01*
X117282481Y-96861015D01*
X117143100Y-96954147D01*
X116988228Y-97018297D01*
X116823816Y-97051000D01*
X116656184Y-97051000D01*
X116491772Y-97018297D01*
X116336900Y-96954147D01*
X116197519Y-96861015D01*
X116078985Y-96742481D01*
X115985853Y-96603100D01*
X115921703Y-96448228D01*
X115889000Y-96283816D01*
X115889000Y-96116184D01*
X115921703Y-95951772D01*
X115985853Y-95796900D01*
X116078985Y-95657519D01*
X116197519Y-95538985D01*
X116336900Y-95445853D01*
X116491772Y-95381703D01*
X116656184Y-95349000D01*
X116823816Y-95349000D01*
X116988228Y-95381703D01*
G37*
G36*
X101748228Y-95381703D02*
G01*
X101903100Y-95445853D01*
X102042481Y-95538985D01*
X102161015Y-95657519D01*
X102254147Y-95796900D01*
X102318297Y-95951772D01*
X102351000Y-96116184D01*
X102351000Y-96283816D01*
X102318297Y-96448228D01*
X102254147Y-96603100D01*
X102161015Y-96742481D01*
X102042481Y-96861015D01*
X101903100Y-96954147D01*
X101748228Y-97018297D01*
X101583816Y-97051000D01*
X101416184Y-97051000D01*
X101251772Y-97018297D01*
X101096900Y-96954147D01*
X100957519Y-96861015D01*
X100838985Y-96742481D01*
X100745853Y-96603100D01*
X100681703Y-96448228D01*
X100649000Y-96283816D01*
X100649000Y-96116184D01*
X100681703Y-95951772D01*
X100745853Y-95796900D01*
X100838985Y-95657519D01*
X100957519Y-95538985D01*
X101096900Y-95445853D01*
X101251772Y-95381703D01*
X101416184Y-95349000D01*
X101583816Y-95349000D01*
X101748228Y-95381703D01*
G37*
G36*
X116988228Y-92841703D02*
G01*
X117143100Y-92905853D01*
X117282481Y-92998985D01*
X117401015Y-93117519D01*
X117494147Y-93256900D01*
X117558297Y-93411772D01*
X117591000Y-93576184D01*
X117591000Y-93743816D01*
X117558297Y-93908228D01*
X117494147Y-94063100D01*
X117401015Y-94202481D01*
X117282481Y-94321015D01*
X117143100Y-94414147D01*
X116988228Y-94478297D01*
X116823816Y-94511000D01*
X116656184Y-94511000D01*
X116491772Y-94478297D01*
X116336900Y-94414147D01*
X116197519Y-94321015D01*
X116078985Y-94202481D01*
X115985853Y-94063100D01*
X115921703Y-93908228D01*
X115889000Y-93743816D01*
X115889000Y-93576184D01*
X115921703Y-93411772D01*
X115985853Y-93256900D01*
X116078985Y-93117519D01*
X116197519Y-92998985D01*
X116336900Y-92905853D01*
X116491772Y-92841703D01*
X116656184Y-92809000D01*
X116823816Y-92809000D01*
X116988228Y-92841703D01*
G37*
G36*
X101748228Y-92841703D02*
G01*
X101903100Y-92905853D01*
X102042481Y-92998985D01*
X102161015Y-93117519D01*
X102254147Y-93256900D01*
X102318297Y-93411772D01*
X102351000Y-93576184D01*
X102351000Y-93743816D01*
X102318297Y-93908228D01*
X102254147Y-94063100D01*
X102161015Y-94202481D01*
X102042481Y-94321015D01*
X101903100Y-94414147D01*
X101748228Y-94478297D01*
X101583816Y-94511000D01*
X101416184Y-94511000D01*
X101251772Y-94478297D01*
X101096900Y-94414147D01*
X100957519Y-94321015D01*
X100838985Y-94202481D01*
X100745853Y-94063100D01*
X100681703Y-93908228D01*
X100649000Y-93743816D01*
X100649000Y-93576184D01*
X100681703Y-93411772D01*
X100745853Y-93256900D01*
X100838985Y-93117519D01*
X100957519Y-92998985D01*
X101096900Y-92905853D01*
X101251772Y-92841703D01*
X101416184Y-92809000D01*
X101583816Y-92809000D01*
X101748228Y-92841703D01*
G37*
G36*
X93123228Y-92381703D02*
G01*
X93278100Y-92445853D01*
X93417481Y-92538985D01*
X93536015Y-92657519D01*
X93629147Y-92796900D01*
X93693297Y-92951772D01*
X93726000Y-93116184D01*
X93726000Y-93283816D01*
X93693297Y-93448228D01*
X93629147Y-93603100D01*
X93536015Y-93742481D01*
X93417481Y-93861015D01*
X93278100Y-93954147D01*
X93123228Y-94018297D01*
X92958816Y-94051000D01*
X92791184Y-94051000D01*
X92626772Y-94018297D01*
X92471900Y-93954147D01*
X92332519Y-93861015D01*
X92213985Y-93742481D01*
X92120853Y-93603100D01*
X92056703Y-93448228D01*
X92024000Y-93283816D01*
X92024000Y-93116184D01*
X92056703Y-92951772D01*
X92120853Y-92796900D01*
X92213985Y-92657519D01*
X92332519Y-92538985D01*
X92471900Y-92445853D01*
X92626772Y-92381703D01*
X92791184Y-92349000D01*
X92958816Y-92349000D01*
X93123228Y-92381703D01*
G37*
G36*
X101748228Y-90301703D02*
G01*
X101903100Y-90365853D01*
X102042481Y-90458985D01*
X102161015Y-90577519D01*
X102254147Y-90716900D01*
X102318297Y-90871772D01*
X102351000Y-91036184D01*
X102351000Y-91203816D01*
X102318297Y-91368228D01*
X102254147Y-91523100D01*
X102161015Y-91662481D01*
X102042481Y-91781015D01*
X101903100Y-91874147D01*
X101748228Y-91938297D01*
X101583816Y-91971000D01*
X101416184Y-91971000D01*
X101251772Y-91938297D01*
X101096900Y-91874147D01*
X100957519Y-91781015D01*
X100838985Y-91662481D01*
X100745853Y-91523100D01*
X100681703Y-91368228D01*
X100649000Y-91203816D01*
X100649000Y-91036184D01*
X100681703Y-90871772D01*
X100745853Y-90716900D01*
X100838985Y-90577519D01*
X100957519Y-90458985D01*
X101096900Y-90365853D01*
X101251772Y-90301703D01*
X101416184Y-90269000D01*
X101583816Y-90269000D01*
X101748228Y-90301703D01*
G37*
G36*
X116988228Y-90301703D02*
G01*
X117143100Y-90365853D01*
X117282481Y-90458985D01*
X117401015Y-90577519D01*
X117494147Y-90716900D01*
X117558297Y-90871772D01*
X117591000Y-91036184D01*
X117591000Y-91203816D01*
X117558297Y-91368228D01*
X117494147Y-91523100D01*
X117401015Y-91662481D01*
X117282481Y-91781015D01*
X117143100Y-91874147D01*
X116988228Y-91938297D01*
X116823816Y-91971000D01*
X116656184Y-91971000D01*
X116491772Y-91938297D01*
X116336900Y-91874147D01*
X116197519Y-91781015D01*
X116078985Y-91662481D01*
X115985853Y-91523100D01*
X115921703Y-91368228D01*
X115889000Y-91203816D01*
X115889000Y-91036184D01*
X115921703Y-90871772D01*
X115985853Y-90716900D01*
X116078985Y-90577519D01*
X116197519Y-90458985D01*
X116336900Y-90365853D01*
X116491772Y-90301703D01*
X116656184Y-90269000D01*
X116823816Y-90269000D01*
X116988228Y-90301703D01*
G37*
G36*
X101748228Y-87761703D02*
G01*
X101903100Y-87825853D01*
X102042481Y-87918985D01*
X102161015Y-88037519D01*
X102254147Y-88176900D01*
X102318297Y-88331772D01*
X102351000Y-88496184D01*
X102351000Y-88663816D01*
X102318297Y-88828228D01*
X102254147Y-88983100D01*
X102161015Y-89122481D01*
X102042481Y-89241015D01*
X101903100Y-89334147D01*
X101748228Y-89398297D01*
X101583816Y-89431000D01*
X101416184Y-89431000D01*
X101251772Y-89398297D01*
X101096900Y-89334147D01*
X100957519Y-89241015D01*
X100838985Y-89122481D01*
X100745853Y-88983100D01*
X100681703Y-88828228D01*
X100649000Y-88663816D01*
X100649000Y-88496184D01*
X100681703Y-88331772D01*
X100745853Y-88176900D01*
X100838985Y-88037519D01*
X100957519Y-87918985D01*
X101096900Y-87825853D01*
X101251772Y-87761703D01*
X101416184Y-87729000D01*
X101583816Y-87729000D01*
X101748228Y-87761703D01*
G37*
G36*
X116988228Y-87761703D02*
G01*
X117143100Y-87825853D01*
X117282481Y-87918985D01*
X117401015Y-88037519D01*
X117494147Y-88176900D01*
X117558297Y-88331772D01*
X117591000Y-88496184D01*
X117591000Y-88663816D01*
X117558297Y-88828228D01*
X117494147Y-88983100D01*
X117401015Y-89122481D01*
X117282481Y-89241015D01*
X117143100Y-89334147D01*
X116988228Y-89398297D01*
X116823816Y-89431000D01*
X116656184Y-89431000D01*
X116491772Y-89398297D01*
X116336900Y-89334147D01*
X116197519Y-89241015D01*
X116078985Y-89122481D01*
X115985853Y-88983100D01*
X115921703Y-88828228D01*
X115889000Y-88663816D01*
X115889000Y-88496184D01*
X115921703Y-88331772D01*
X115985853Y-88176900D01*
X116078985Y-88037519D01*
X116197519Y-87918985D01*
X116336900Y-87825853D01*
X116491772Y-87761703D01*
X116656184Y-87729000D01*
X116823816Y-87729000D01*
X116988228Y-87761703D01*
G37*
G36*
X101748228Y-85221703D02*
G01*
X101903100Y-85285853D01*
X102042481Y-85378985D01*
X102161015Y-85497519D01*
X102254147Y-85636900D01*
X102318297Y-85791772D01*
X102351000Y-85956184D01*
X102351000Y-86123816D01*
X102318297Y-86288228D01*
X102254147Y-86443100D01*
X102161015Y-86582481D01*
X102042481Y-86701015D01*
X101903100Y-86794147D01*
X101748228Y-86858297D01*
X101583816Y-86891000D01*
X101416184Y-86891000D01*
X101251772Y-86858297D01*
X101096900Y-86794147D01*
X100957519Y-86701015D01*
X100838985Y-86582481D01*
X100745853Y-86443100D01*
X100681703Y-86288228D01*
X100649000Y-86123816D01*
X100649000Y-85956184D01*
X100681703Y-85791772D01*
X100745853Y-85636900D01*
X100838985Y-85497519D01*
X100957519Y-85378985D01*
X101096900Y-85285853D01*
X101251772Y-85221703D01*
X101416184Y-85189000D01*
X101583816Y-85189000D01*
X101748228Y-85221703D01*
G37*
G36*
X116988228Y-85221703D02*
G01*
X117143100Y-85285853D01*
X117282481Y-85378985D01*
X117401015Y-85497519D01*
X117494147Y-85636900D01*
X117558297Y-85791772D01*
X117591000Y-85956184D01*
X117591000Y-86123816D01*
X117558297Y-86288228D01*
X117494147Y-86443100D01*
X117401015Y-86582481D01*
X117282481Y-86701015D01*
X117143100Y-86794147D01*
X116988228Y-86858297D01*
X116823816Y-86891000D01*
X116656184Y-86891000D01*
X116491772Y-86858297D01*
X116336900Y-86794147D01*
X116197519Y-86701015D01*
X116078985Y-86582481D01*
X115985853Y-86443100D01*
X115921703Y-86288228D01*
X115889000Y-86123816D01*
X115889000Y-85956184D01*
X115921703Y-85791772D01*
X115985853Y-85636900D01*
X116078985Y-85497519D01*
X116197519Y-85378985D01*
X116336900Y-85285853D01*
X116491772Y-85221703D01*
X116656184Y-85189000D01*
X116823816Y-85189000D01*
X116988228Y-85221703D01*
G37*
G36*
X116988228Y-82681703D02*
G01*
X117143100Y-82745853D01*
X117282481Y-82838985D01*
X117401015Y-82957519D01*
X117494147Y-83096900D01*
X117558297Y-83251772D01*
X117591000Y-83416184D01*
X117591000Y-83583816D01*
X117558297Y-83748228D01*
X117494147Y-83903100D01*
X117401015Y-84042481D01*
X117282481Y-84161015D01*
X117143100Y-84254147D01*
X116988228Y-84318297D01*
X116823816Y-84351000D01*
X116656184Y-84351000D01*
X116491772Y-84318297D01*
X116336900Y-84254147D01*
X116197519Y-84161015D01*
X116078985Y-84042481D01*
X115985853Y-83903100D01*
X115921703Y-83748228D01*
X115889000Y-83583816D01*
X115889000Y-83416184D01*
X115921703Y-83251772D01*
X115985853Y-83096900D01*
X116078985Y-82957519D01*
X116197519Y-82838985D01*
X116336900Y-82745853D01*
X116491772Y-82681703D01*
X116656184Y-82649000D01*
X116823816Y-82649000D01*
X116988228Y-82681703D01*
G37*
G36*
X101748228Y-82681703D02*
G01*
X101903100Y-82745853D01*
X102042481Y-82838985D01*
X102161015Y-82957519D01*
X102254147Y-83096900D01*
X102318297Y-83251772D01*
X102351000Y-83416184D01*
X102351000Y-83583816D01*
X102318297Y-83748228D01*
X102254147Y-83903100D01*
X102161015Y-84042481D01*
X102042481Y-84161015D01*
X101903100Y-84254147D01*
X101748228Y-84318297D01*
X101583816Y-84351000D01*
X101416184Y-84351000D01*
X101251772Y-84318297D01*
X101096900Y-84254147D01*
X100957519Y-84161015D01*
X100838985Y-84042481D01*
X100745853Y-83903100D01*
X100681703Y-83748228D01*
X100649000Y-83583816D01*
X100649000Y-83416184D01*
X100681703Y-83251772D01*
X100745853Y-83096900D01*
X100838985Y-82957519D01*
X100957519Y-82838985D01*
X101096900Y-82745853D01*
X101251772Y-82681703D01*
X101416184Y-82649000D01*
X101583816Y-82649000D01*
X101748228Y-82681703D01*
G37*
G36*
X101748228Y-80141703D02*
G01*
X101903100Y-80205853D01*
X102042481Y-80298985D01*
X102161015Y-80417519D01*
X102254147Y-80556900D01*
X102318297Y-80711772D01*
X102351000Y-80876184D01*
X102351000Y-81043816D01*
X102318297Y-81208228D01*
X102254147Y-81363100D01*
X102161015Y-81502481D01*
X102042481Y-81621015D01*
X101903100Y-81714147D01*
X101748228Y-81778297D01*
X101583816Y-81811000D01*
X101416184Y-81811000D01*
X101251772Y-81778297D01*
X101096900Y-81714147D01*
X100957519Y-81621015D01*
X100838985Y-81502481D01*
X100745853Y-81363100D01*
X100681703Y-81208228D01*
X100649000Y-81043816D01*
X100649000Y-80876184D01*
X100681703Y-80711772D01*
X100745853Y-80556900D01*
X100838985Y-80417519D01*
X100957519Y-80298985D01*
X101096900Y-80205853D01*
X101251772Y-80141703D01*
X101416184Y-80109000D01*
X101583816Y-80109000D01*
X101748228Y-80141703D01*
G37*
G36*
X116988228Y-80141703D02*
G01*
X117143100Y-80205853D01*
X117282481Y-80298985D01*
X117401015Y-80417519D01*
X117494147Y-80556900D01*
X117558297Y-80711772D01*
X117591000Y-80876184D01*
X117591000Y-81043816D01*
X117558297Y-81208228D01*
X117494147Y-81363100D01*
X117401015Y-81502481D01*
X117282481Y-81621015D01*
X117143100Y-81714147D01*
X116988228Y-81778297D01*
X116823816Y-81811000D01*
X116656184Y-81811000D01*
X116491772Y-81778297D01*
X116336900Y-81714147D01*
X116197519Y-81621015D01*
X116078985Y-81502481D01*
X115985853Y-81363100D01*
X115921703Y-81208228D01*
X115889000Y-81043816D01*
X115889000Y-80876184D01*
X115921703Y-80711772D01*
X115985853Y-80556900D01*
X116078985Y-80417519D01*
X116197519Y-80298985D01*
X116336900Y-80205853D01*
X116491772Y-80141703D01*
X116656184Y-80109000D01*
X116823816Y-80109000D01*
X116988228Y-80141703D01*
G37*
G36*
X101748228Y-77601703D02*
G01*
X101903100Y-77665853D01*
X102042481Y-77758985D01*
X102161015Y-77877519D01*
X102254147Y-78016900D01*
X102318297Y-78171772D01*
X102351000Y-78336184D01*
X102351000Y-78503816D01*
X102318297Y-78668228D01*
X102254147Y-78823100D01*
X102161015Y-78962481D01*
X102042481Y-79081015D01*
X101903100Y-79174147D01*
X101748228Y-79238297D01*
X101583816Y-79271000D01*
X101416184Y-79271000D01*
X101251772Y-79238297D01*
X101096900Y-79174147D01*
X100957519Y-79081015D01*
X100838985Y-78962481D01*
X100745853Y-78823100D01*
X100681703Y-78668228D01*
X100649000Y-78503816D01*
X100649000Y-78336184D01*
X100681703Y-78171772D01*
X100745853Y-78016900D01*
X100838985Y-77877519D01*
X100957519Y-77758985D01*
X101096900Y-77665853D01*
X101251772Y-77601703D01*
X101416184Y-77569000D01*
X101583816Y-77569000D01*
X101748228Y-77601703D01*
G37*
G36*
X116988228Y-77601703D02*
G01*
X117143100Y-77665853D01*
X117282481Y-77758985D01*
X117401015Y-77877519D01*
X117494147Y-78016900D01*
X117558297Y-78171772D01*
X117591000Y-78336184D01*
X117591000Y-78503816D01*
X117558297Y-78668228D01*
X117494147Y-78823100D01*
X117401015Y-78962481D01*
X117282481Y-79081015D01*
X117143100Y-79174147D01*
X116988228Y-79238297D01*
X116823816Y-79271000D01*
X116656184Y-79271000D01*
X116491772Y-79238297D01*
X116336900Y-79174147D01*
X116197519Y-79081015D01*
X116078985Y-78962481D01*
X115985853Y-78823100D01*
X115921703Y-78668228D01*
X115889000Y-78503816D01*
X115889000Y-78336184D01*
X115921703Y-78171772D01*
X115985853Y-78016900D01*
X116078985Y-77877519D01*
X116197519Y-77758985D01*
X116336900Y-77665853D01*
X116491772Y-77601703D01*
X116656184Y-77569000D01*
X116823816Y-77569000D01*
X116988228Y-77601703D01*
G37*
G36*
X116988228Y-75061703D02*
G01*
X117143100Y-75125853D01*
X117282481Y-75218985D01*
X117401015Y-75337519D01*
X117494147Y-75476900D01*
X117558297Y-75631772D01*
X117591000Y-75796184D01*
X117591000Y-75963816D01*
X117558297Y-76128228D01*
X117494147Y-76283100D01*
X117401015Y-76422481D01*
X117282481Y-76541015D01*
X117143100Y-76634147D01*
X116988228Y-76698297D01*
X116823816Y-76731000D01*
X116656184Y-76731000D01*
X116491772Y-76698297D01*
X116336900Y-76634147D01*
X116197519Y-76541015D01*
X116078985Y-76422481D01*
X115985853Y-76283100D01*
X115921703Y-76128228D01*
X115889000Y-75963816D01*
X115889000Y-75796184D01*
X115921703Y-75631772D01*
X115985853Y-75476900D01*
X116078985Y-75337519D01*
X116197519Y-75218985D01*
X116336900Y-75125853D01*
X116491772Y-75061703D01*
X116656184Y-75029000D01*
X116823816Y-75029000D01*
X116988228Y-75061703D01*
G37*
G36*
X101748228Y-75061703D02*
G01*
X101903100Y-75125853D01*
X102042481Y-75218985D01*
X102161015Y-75337519D01*
X102254147Y-75476900D01*
X102318297Y-75631772D01*
X102351000Y-75796184D01*
X102351000Y-75963816D01*
X102318297Y-76128228D01*
X102254147Y-76283100D01*
X102161015Y-76422481D01*
X102042481Y-76541015D01*
X101903100Y-76634147D01*
X101748228Y-76698297D01*
X101583816Y-76731000D01*
X101416184Y-76731000D01*
X101251772Y-76698297D01*
X101096900Y-76634147D01*
X100957519Y-76541015D01*
X100838985Y-76422481D01*
X100745853Y-76283100D01*
X100681703Y-76128228D01*
X100649000Y-75963816D01*
X100649000Y-75796184D01*
X100681703Y-75631772D01*
X100745853Y-75476900D01*
X100838985Y-75337519D01*
X100957519Y-75218985D01*
X101096900Y-75125853D01*
X101251772Y-75061703D01*
X101416184Y-75029000D01*
X101583816Y-75029000D01*
X101748228Y-75061703D01*
G37*
G36*
X101748228Y-72521703D02*
G01*
X101903100Y-72585853D01*
X102042481Y-72678985D01*
X102161015Y-72797519D01*
X102254147Y-72936900D01*
X102318297Y-73091772D01*
X102351000Y-73256184D01*
X102351000Y-73423816D01*
X102318297Y-73588228D01*
X102254147Y-73743100D01*
X102161015Y-73882481D01*
X102042481Y-74001015D01*
X101903100Y-74094147D01*
X101748228Y-74158297D01*
X101583816Y-74191000D01*
X101416184Y-74191000D01*
X101251772Y-74158297D01*
X101096900Y-74094147D01*
X100957519Y-74001015D01*
X100838985Y-73882481D01*
X100745853Y-73743100D01*
X100681703Y-73588228D01*
X100649000Y-73423816D01*
X100649000Y-73256184D01*
X100681703Y-73091772D01*
X100745853Y-72936900D01*
X100838985Y-72797519D01*
X100957519Y-72678985D01*
X101096900Y-72585853D01*
X101251772Y-72521703D01*
X101416184Y-72489000D01*
X101583816Y-72489000D01*
X101748228Y-72521703D01*
G37*
G36*
X116988228Y-72521703D02*
G01*
X117143100Y-72585853D01*
X117282481Y-72678985D01*
X117401015Y-72797519D01*
X117494147Y-72936900D01*
X117558297Y-73091772D01*
X117591000Y-73256184D01*
X117591000Y-73423816D01*
X117558297Y-73588228D01*
X117494147Y-73743100D01*
X117401015Y-73882481D01*
X117282481Y-74001015D01*
X117143100Y-74094147D01*
X116988228Y-74158297D01*
X116823816Y-74191000D01*
X116656184Y-74191000D01*
X116491772Y-74158297D01*
X116336900Y-74094147D01*
X116197519Y-74001015D01*
X116078985Y-73882481D01*
X115985853Y-73743100D01*
X115921703Y-73588228D01*
X115889000Y-73423816D01*
X115889000Y-73256184D01*
X115921703Y-73091772D01*
X115985853Y-72936900D01*
X116078985Y-72797519D01*
X116197519Y-72678985D01*
X116336900Y-72585853D01*
X116491772Y-72521703D01*
X116656184Y-72489000D01*
X116823816Y-72489000D01*
X116988228Y-72521703D01*
G37*
G36*
X112224549Y-71871116D02*
G01*
X112335734Y-71893232D01*
X112545203Y-71979997D01*
X112733720Y-72105960D01*
X112894040Y-72266280D01*
X113020003Y-72454797D01*
X113106768Y-72664266D01*
X113151000Y-72886636D01*
X113151000Y-73113364D01*
X113106768Y-73335734D01*
X113020003Y-73545203D01*
X112894040Y-73733720D01*
X112733720Y-73894040D01*
X112545203Y-74020003D01*
X112335734Y-74106768D01*
X112224549Y-74128884D01*
X112113365Y-74151000D01*
X111886635Y-74151000D01*
X111775451Y-74128884D01*
X111664266Y-74106768D01*
X111454797Y-74020003D01*
X111266280Y-73894040D01*
X111105960Y-73733720D01*
X110979997Y-73545203D01*
X110893232Y-73335734D01*
X110849000Y-73113364D01*
X110849000Y-72886636D01*
X110893232Y-72664266D01*
X110979997Y-72454797D01*
X111105960Y-72266280D01*
X111266280Y-72105960D01*
X111454797Y-71979997D01*
X111664266Y-71893232D01*
X111775451Y-71871116D01*
X111886635Y-71849000D01*
X112113365Y-71849000D01*
X112224549Y-71871116D01*
G37*
G36*
X93011601Y-71614397D02*
G01*
X93050305Y-71622096D01*
X93082340Y-71635365D01*
X93159680Y-71667400D01*
X93258115Y-71733173D01*
X93341827Y-71816885D01*
X93407600Y-71915320D01*
X93452904Y-72024696D01*
X93476000Y-72140805D01*
X93476000Y-72259195D01*
X93452904Y-72375304D01*
X93407600Y-72484680D01*
X93341827Y-72583115D01*
X93258115Y-72666827D01*
X93159680Y-72732600D01*
X93082340Y-72764635D01*
X93050305Y-72777904D01*
X93011601Y-72785603D01*
X92934195Y-72801000D01*
X92815805Y-72801000D01*
X92738399Y-72785603D01*
X92699695Y-72777904D01*
X92667660Y-72764635D01*
X92590320Y-72732600D01*
X92491885Y-72666827D01*
X92408173Y-72583115D01*
X92342400Y-72484680D01*
X92297096Y-72375304D01*
X92274000Y-72259195D01*
X92274000Y-72140805D01*
X92297096Y-72024696D01*
X92342400Y-71915320D01*
X92408173Y-71816885D01*
X92491885Y-71733173D01*
X92590320Y-71667400D01*
X92667660Y-71635365D01*
X92699695Y-71622096D01*
X92738399Y-71614397D01*
X92815805Y-71599000D01*
X92934195Y-71599000D01*
X93011601Y-71614397D01*
G37*
G36*
X116988228Y-69981703D02*
G01*
X117143100Y-70045853D01*
X117282481Y-70138985D01*
X117401015Y-70257519D01*
X117494147Y-70396900D01*
X117558297Y-70551772D01*
X117591000Y-70716184D01*
X117591000Y-70883816D01*
X117558297Y-71048228D01*
X117494147Y-71203100D01*
X117401015Y-71342481D01*
X117282481Y-71461015D01*
X117143100Y-71554147D01*
X116988228Y-71618297D01*
X116823816Y-71651000D01*
X116656184Y-71651000D01*
X116491772Y-71618297D01*
X116336900Y-71554147D01*
X116197519Y-71461015D01*
X116078985Y-71342481D01*
X115985853Y-71203100D01*
X115921703Y-71048228D01*
X115889000Y-70883816D01*
X115889000Y-70716184D01*
X115921703Y-70551772D01*
X115985853Y-70396900D01*
X116078985Y-70257519D01*
X116197519Y-70138985D01*
X116336900Y-70045853D01*
X116491772Y-69981703D01*
X116656184Y-69949000D01*
X116823816Y-69949000D01*
X116988228Y-69981703D01*
G37*
G36*
X102351000Y-71651000D02*
G01*
X100649000Y-71651000D01*
X100649000Y-69949000D01*
X102351000Y-69949000D01*
X102351000Y-71651000D01*
G37*
M02*
