G04 #@! TF.GenerationSoftware,KiCad,Pcbnew,(5.1.5)-3*
G04 #@! TF.CreationDate,2020-01-24T22:37:54-08:00*
G04 #@! TF.ProjectId,sdInterface,7364496e-7465-4726-9661-63652e6b6963,rev?*
G04 #@! TF.SameCoordinates,Original*
G04 #@! TF.FileFunction,Soldermask,Top*
G04 #@! TF.FilePolarity,Negative*
%FSLAX46Y46*%
G04 Gerber Fmt 4.6, Leading zero omitted, Abs format (unit mm)*
G04 Created by KiCad (PCBNEW (5.1.5)-3) date 2020-01-24 22:37:54*
%MOMM*%
%LPD*%
G04 APERTURE LIST*
%ADD10C,0.100000*%
G04 APERTURE END LIST*
D10*
G36*
X114001000Y-107801000D02*
G01*
X112199000Y-107801000D01*
X112199000Y-105999000D01*
X114001000Y-105999000D01*
X114001000Y-107801000D01*
G37*
G36*
X115753512Y-106003927D02*
G01*
X115902812Y-106033624D01*
X116066784Y-106101544D01*
X116214354Y-106200147D01*
X116339853Y-106325646D01*
X116438456Y-106473216D01*
X116506376Y-106637188D01*
X116541000Y-106811259D01*
X116541000Y-106988741D01*
X116506376Y-107162812D01*
X116438456Y-107326784D01*
X116339853Y-107474354D01*
X116214354Y-107599853D01*
X116066784Y-107698456D01*
X115902812Y-107766376D01*
X115753512Y-107796073D01*
X115728742Y-107801000D01*
X115551258Y-107801000D01*
X115526488Y-107796073D01*
X115377188Y-107766376D01*
X115213216Y-107698456D01*
X115065646Y-107599853D01*
X114940147Y-107474354D01*
X114841544Y-107326784D01*
X114773624Y-107162812D01*
X114739000Y-106988741D01*
X114739000Y-106811259D01*
X114773624Y-106637188D01*
X114841544Y-106473216D01*
X114940147Y-106325646D01*
X115065646Y-106200147D01*
X115213216Y-106101544D01*
X115377188Y-106033624D01*
X115526488Y-106003927D01*
X115551258Y-105999000D01*
X115728742Y-105999000D01*
X115753512Y-106003927D01*
G37*
G36*
X118293512Y-106003927D02*
G01*
X118442812Y-106033624D01*
X118606784Y-106101544D01*
X118754354Y-106200147D01*
X118879853Y-106325646D01*
X118978456Y-106473216D01*
X119046376Y-106637188D01*
X119081000Y-106811259D01*
X119081000Y-106988741D01*
X119046376Y-107162812D01*
X118978456Y-107326784D01*
X118879853Y-107474354D01*
X118754354Y-107599853D01*
X118606784Y-107698456D01*
X118442812Y-107766376D01*
X118293512Y-107796073D01*
X118268742Y-107801000D01*
X118091258Y-107801000D01*
X118066488Y-107796073D01*
X117917188Y-107766376D01*
X117753216Y-107698456D01*
X117605646Y-107599853D01*
X117480147Y-107474354D01*
X117381544Y-107326784D01*
X117313624Y-107162812D01*
X117279000Y-106988741D01*
X117279000Y-106811259D01*
X117313624Y-106637188D01*
X117381544Y-106473216D01*
X117480147Y-106325646D01*
X117605646Y-106200147D01*
X117753216Y-106101544D01*
X117917188Y-106033624D01*
X118066488Y-106003927D01*
X118091258Y-105999000D01*
X118268742Y-105999000D01*
X118293512Y-106003927D01*
G37*
G36*
X139088228Y-102721703D02*
G01*
X139243100Y-102785853D01*
X139382481Y-102878985D01*
X139501015Y-102997519D01*
X139594147Y-103136900D01*
X139658297Y-103291772D01*
X139691000Y-103456184D01*
X139691000Y-103623816D01*
X139658297Y-103788228D01*
X139594147Y-103943100D01*
X139501015Y-104082481D01*
X139382481Y-104201015D01*
X139243100Y-104294147D01*
X139088228Y-104358297D01*
X138923816Y-104391000D01*
X138756184Y-104391000D01*
X138591772Y-104358297D01*
X138436900Y-104294147D01*
X138297519Y-104201015D01*
X138178985Y-104082481D01*
X138085853Y-103943100D01*
X138021703Y-103788228D01*
X137989000Y-103623816D01*
X137989000Y-103456184D01*
X138021703Y-103291772D01*
X138085853Y-103136900D01*
X138178985Y-102997519D01*
X138297519Y-102878985D01*
X138436900Y-102785853D01*
X138591772Y-102721703D01*
X138756184Y-102689000D01*
X138923816Y-102689000D01*
X139088228Y-102721703D01*
G37*
G36*
X123848228Y-102721703D02*
G01*
X124003100Y-102785853D01*
X124142481Y-102878985D01*
X124261015Y-102997519D01*
X124354147Y-103136900D01*
X124418297Y-103291772D01*
X124451000Y-103456184D01*
X124451000Y-103623816D01*
X124418297Y-103788228D01*
X124354147Y-103943100D01*
X124261015Y-104082481D01*
X124142481Y-104201015D01*
X124003100Y-104294147D01*
X123848228Y-104358297D01*
X123683816Y-104391000D01*
X123516184Y-104391000D01*
X123351772Y-104358297D01*
X123196900Y-104294147D01*
X123057519Y-104201015D01*
X122938985Y-104082481D01*
X122845853Y-103943100D01*
X122781703Y-103788228D01*
X122749000Y-103623816D01*
X122749000Y-103456184D01*
X122781703Y-103291772D01*
X122845853Y-103136900D01*
X122938985Y-102997519D01*
X123057519Y-102878985D01*
X123196900Y-102785853D01*
X123351772Y-102721703D01*
X123516184Y-102689000D01*
X123683816Y-102689000D01*
X123848228Y-102721703D01*
G37*
G36*
X93026000Y-101424001D02*
G01*
X93028402Y-101448387D01*
X93035515Y-101471836D01*
X93047066Y-101493447D01*
X93062611Y-101512389D01*
X93081553Y-101527934D01*
X93103164Y-101539485D01*
X93126613Y-101546598D01*
X93150999Y-101549000D01*
X95476000Y-101549000D01*
X95476000Y-103151000D01*
X92574000Y-103151000D01*
X92574000Y-101480999D01*
X92571598Y-101456613D01*
X92564485Y-101433164D01*
X92552934Y-101411553D01*
X92537389Y-101392611D01*
X92518447Y-101377066D01*
X92496836Y-101365515D01*
X92473387Y-101358402D01*
X92449001Y-101356000D01*
X91424000Y-101356000D01*
X91424000Y-100554000D01*
X93026000Y-100554000D01*
X93026000Y-101424001D01*
G37*
G36*
X116976000Y-103151000D02*
G01*
X114074000Y-103151000D01*
X114074000Y-101549000D01*
X116976000Y-101549000D01*
X116976000Y-103151000D01*
G37*
G36*
X139088228Y-100181703D02*
G01*
X139243100Y-100245853D01*
X139382481Y-100338985D01*
X139501015Y-100457519D01*
X139594147Y-100596900D01*
X139658297Y-100751772D01*
X139691000Y-100916184D01*
X139691000Y-101083816D01*
X139658297Y-101248228D01*
X139594147Y-101403100D01*
X139501015Y-101542481D01*
X139382481Y-101661015D01*
X139243100Y-101754147D01*
X139088228Y-101818297D01*
X138923816Y-101851000D01*
X138756184Y-101851000D01*
X138591772Y-101818297D01*
X138436900Y-101754147D01*
X138297519Y-101661015D01*
X138178985Y-101542481D01*
X138085853Y-101403100D01*
X138021703Y-101248228D01*
X137989000Y-101083816D01*
X137989000Y-100916184D01*
X138021703Y-100751772D01*
X138085853Y-100596900D01*
X138178985Y-100457519D01*
X138297519Y-100338985D01*
X138436900Y-100245853D01*
X138591772Y-100181703D01*
X138756184Y-100149000D01*
X138923816Y-100149000D01*
X139088228Y-100181703D01*
G37*
G36*
X123848228Y-100181703D02*
G01*
X124003100Y-100245853D01*
X124142481Y-100338985D01*
X124261015Y-100457519D01*
X124354147Y-100596900D01*
X124418297Y-100751772D01*
X124451000Y-100916184D01*
X124451000Y-101083816D01*
X124418297Y-101248228D01*
X124354147Y-101403100D01*
X124261015Y-101542481D01*
X124142481Y-101661015D01*
X124003100Y-101754147D01*
X123848228Y-101818297D01*
X123683816Y-101851000D01*
X123516184Y-101851000D01*
X123351772Y-101818297D01*
X123196900Y-101754147D01*
X123057519Y-101661015D01*
X122938985Y-101542481D01*
X122845853Y-101403100D01*
X122781703Y-101248228D01*
X122749000Y-101083816D01*
X122749000Y-100916184D01*
X122781703Y-100751772D01*
X122845853Y-100596900D01*
X122938985Y-100457519D01*
X123057519Y-100338985D01*
X123196900Y-100245853D01*
X123351772Y-100181703D01*
X123516184Y-100149000D01*
X123683816Y-100149000D01*
X123848228Y-100181703D01*
G37*
G36*
X133501000Y-101301000D02*
G01*
X129599000Y-101301000D01*
X129599000Y-99199000D01*
X133501000Y-99199000D01*
X133501000Y-101301000D01*
G37*
G36*
X95161601Y-99614397D02*
G01*
X95200305Y-99622096D01*
X95232340Y-99635365D01*
X95309680Y-99667400D01*
X95408115Y-99733173D01*
X95491827Y-99816885D01*
X95557600Y-99915320D01*
X95602904Y-100024696D01*
X95626000Y-100140805D01*
X95626000Y-100259195D01*
X95602904Y-100375304D01*
X95557600Y-100484680D01*
X95491827Y-100583115D01*
X95408115Y-100666827D01*
X95309680Y-100732600D01*
X95232340Y-100764635D01*
X95200305Y-100777904D01*
X95161601Y-100785603D01*
X95084195Y-100801000D01*
X94965805Y-100801000D01*
X94888399Y-100785603D01*
X94849695Y-100777904D01*
X94817660Y-100764635D01*
X94740320Y-100732600D01*
X94641885Y-100666827D01*
X94558173Y-100583115D01*
X94492400Y-100484680D01*
X94447096Y-100375304D01*
X94424000Y-100259195D01*
X94424000Y-100140805D01*
X94447096Y-100024696D01*
X94492400Y-99915320D01*
X94558173Y-99816885D01*
X94641885Y-99733173D01*
X94740320Y-99667400D01*
X94817660Y-99635365D01*
X94849695Y-99622096D01*
X94888399Y-99614397D01*
X94965805Y-99599000D01*
X95084195Y-99599000D01*
X95161601Y-99614397D01*
G37*
G36*
X93026000Y-100156000D02*
G01*
X91424000Y-100156000D01*
X91424000Y-99354000D01*
X93026000Y-99354000D01*
X93026000Y-100156000D01*
G37*
G36*
X139088228Y-97641703D02*
G01*
X139243100Y-97705853D01*
X139382481Y-97798985D01*
X139501015Y-97917519D01*
X139594147Y-98056900D01*
X139658297Y-98211772D01*
X139691000Y-98376184D01*
X139691000Y-98543816D01*
X139658297Y-98708228D01*
X139594147Y-98863100D01*
X139501015Y-99002481D01*
X139382481Y-99121015D01*
X139243100Y-99214147D01*
X139088228Y-99278297D01*
X138923816Y-99311000D01*
X138756184Y-99311000D01*
X138591772Y-99278297D01*
X138436900Y-99214147D01*
X138297519Y-99121015D01*
X138178985Y-99002481D01*
X138085853Y-98863100D01*
X138021703Y-98708228D01*
X137989000Y-98543816D01*
X137989000Y-98376184D01*
X138021703Y-98211772D01*
X138085853Y-98056900D01*
X138178985Y-97917519D01*
X138297519Y-97798985D01*
X138436900Y-97705853D01*
X138591772Y-97641703D01*
X138756184Y-97609000D01*
X138923816Y-97609000D01*
X139088228Y-97641703D01*
G37*
G36*
X123848228Y-97641703D02*
G01*
X124003100Y-97705853D01*
X124142481Y-97798985D01*
X124261015Y-97917519D01*
X124354147Y-98056900D01*
X124418297Y-98211772D01*
X124451000Y-98376184D01*
X124451000Y-98543816D01*
X124418297Y-98708228D01*
X124354147Y-98863100D01*
X124261015Y-99002481D01*
X124142481Y-99121015D01*
X124003100Y-99214147D01*
X123848228Y-99278297D01*
X123683816Y-99311000D01*
X123516184Y-99311000D01*
X123351772Y-99278297D01*
X123196900Y-99214147D01*
X123057519Y-99121015D01*
X122938985Y-99002481D01*
X122845853Y-98863100D01*
X122781703Y-98708228D01*
X122749000Y-98543816D01*
X122749000Y-98376184D01*
X122781703Y-98211772D01*
X122845853Y-98056900D01*
X122938985Y-97917519D01*
X123057519Y-97798985D01*
X123196900Y-97705853D01*
X123351772Y-97641703D01*
X123516184Y-97609000D01*
X123683816Y-97609000D01*
X123848228Y-97641703D01*
G37*
G36*
X93026000Y-99006000D02*
G01*
X91424000Y-99006000D01*
X91424000Y-97904000D01*
X93026000Y-97904000D01*
X93026000Y-99006000D01*
G37*
G36*
X93026000Y-97306000D02*
G01*
X91424000Y-97306000D01*
X91424000Y-96204000D01*
X93026000Y-96204000D01*
X93026000Y-97306000D01*
G37*
G36*
X139088228Y-95101703D02*
G01*
X139243100Y-95165853D01*
X139382481Y-95258985D01*
X139501015Y-95377519D01*
X139594147Y-95516900D01*
X139658297Y-95671772D01*
X139691000Y-95836184D01*
X139691000Y-96003816D01*
X139658297Y-96168228D01*
X139594147Y-96323100D01*
X139501015Y-96462481D01*
X139382481Y-96581015D01*
X139243100Y-96674147D01*
X139088228Y-96738297D01*
X138923816Y-96771000D01*
X138756184Y-96771000D01*
X138591772Y-96738297D01*
X138436900Y-96674147D01*
X138297519Y-96581015D01*
X138178985Y-96462481D01*
X138085853Y-96323100D01*
X138021703Y-96168228D01*
X137989000Y-96003816D01*
X137989000Y-95836184D01*
X138021703Y-95671772D01*
X138085853Y-95516900D01*
X138178985Y-95377519D01*
X138297519Y-95258985D01*
X138436900Y-95165853D01*
X138591772Y-95101703D01*
X138756184Y-95069000D01*
X138923816Y-95069000D01*
X139088228Y-95101703D01*
G37*
G36*
X123848228Y-95101703D02*
G01*
X124003100Y-95165853D01*
X124142481Y-95258985D01*
X124261015Y-95377519D01*
X124354147Y-95516900D01*
X124418297Y-95671772D01*
X124451000Y-95836184D01*
X124451000Y-96003816D01*
X124418297Y-96168228D01*
X124354147Y-96323100D01*
X124261015Y-96462481D01*
X124142481Y-96581015D01*
X124003100Y-96674147D01*
X123848228Y-96738297D01*
X123683816Y-96771000D01*
X123516184Y-96771000D01*
X123351772Y-96738297D01*
X123196900Y-96674147D01*
X123057519Y-96581015D01*
X122938985Y-96462481D01*
X122845853Y-96323100D01*
X122781703Y-96168228D01*
X122749000Y-96003816D01*
X122749000Y-95836184D01*
X122781703Y-95671772D01*
X122845853Y-95516900D01*
X122938985Y-95377519D01*
X123057519Y-95258985D01*
X123196900Y-95165853D01*
X123351772Y-95101703D01*
X123516184Y-95069000D01*
X123683816Y-95069000D01*
X123848228Y-95101703D01*
G37*
G36*
X130051000Y-95001000D02*
G01*
X128449000Y-95001000D01*
X128449000Y-92899000D01*
X130051000Y-92899000D01*
X130051000Y-95001000D01*
G37*
G36*
X134651000Y-95001000D02*
G01*
X133049000Y-95001000D01*
X133049000Y-92899000D01*
X134651000Y-92899000D01*
X134651000Y-95001000D01*
G37*
G36*
X132351000Y-95001000D02*
G01*
X130749000Y-95001000D01*
X130749000Y-92899000D01*
X132351000Y-92899000D01*
X132351000Y-95001000D01*
G37*
G36*
X93026000Y-94876000D02*
G01*
X91424000Y-94876000D01*
X91424000Y-93774000D01*
X93026000Y-93774000D01*
X93026000Y-94876000D01*
G37*
G36*
X139088228Y-92561703D02*
G01*
X139243100Y-92625853D01*
X139382481Y-92718985D01*
X139501015Y-92837519D01*
X139594147Y-92976900D01*
X139658297Y-93131772D01*
X139691000Y-93296184D01*
X139691000Y-93463816D01*
X139658297Y-93628228D01*
X139594147Y-93783100D01*
X139501015Y-93922481D01*
X139382481Y-94041015D01*
X139243100Y-94134147D01*
X139088228Y-94198297D01*
X138923816Y-94231000D01*
X138756184Y-94231000D01*
X138591772Y-94198297D01*
X138436900Y-94134147D01*
X138297519Y-94041015D01*
X138178985Y-93922481D01*
X138085853Y-93783100D01*
X138021703Y-93628228D01*
X137989000Y-93463816D01*
X137989000Y-93296184D01*
X138021703Y-93131772D01*
X138085853Y-92976900D01*
X138178985Y-92837519D01*
X138297519Y-92718985D01*
X138436900Y-92625853D01*
X138591772Y-92561703D01*
X138756184Y-92529000D01*
X138923816Y-92529000D01*
X139088228Y-92561703D01*
G37*
G36*
X123848228Y-92561703D02*
G01*
X124003100Y-92625853D01*
X124142481Y-92718985D01*
X124261015Y-92837519D01*
X124354147Y-92976900D01*
X124418297Y-93131772D01*
X124451000Y-93296184D01*
X124451000Y-93463816D01*
X124418297Y-93628228D01*
X124354147Y-93783100D01*
X124261015Y-93922481D01*
X124142481Y-94041015D01*
X124003100Y-94134147D01*
X123848228Y-94198297D01*
X123683816Y-94231000D01*
X123516184Y-94231000D01*
X123351772Y-94198297D01*
X123196900Y-94134147D01*
X123057519Y-94041015D01*
X122938985Y-93922481D01*
X122845853Y-93783100D01*
X122781703Y-93628228D01*
X122749000Y-93463816D01*
X122749000Y-93296184D01*
X122781703Y-93131772D01*
X122845853Y-92976900D01*
X122938985Y-92837519D01*
X123057519Y-92718985D01*
X123196900Y-92625853D01*
X123351772Y-92561703D01*
X123516184Y-92529000D01*
X123683816Y-92529000D01*
X123848228Y-92561703D01*
G37*
G36*
X93026000Y-92376000D02*
G01*
X91424000Y-92376000D01*
X91424000Y-91274000D01*
X93026000Y-91274000D01*
X93026000Y-92376000D01*
G37*
G36*
X139088228Y-90021703D02*
G01*
X139243100Y-90085853D01*
X139382481Y-90178985D01*
X139501015Y-90297519D01*
X139594147Y-90436900D01*
X139658297Y-90591772D01*
X139691000Y-90756184D01*
X139691000Y-90923816D01*
X139658297Y-91088228D01*
X139594147Y-91243100D01*
X139501015Y-91382481D01*
X139382481Y-91501015D01*
X139243100Y-91594147D01*
X139088228Y-91658297D01*
X138923816Y-91691000D01*
X138756184Y-91691000D01*
X138591772Y-91658297D01*
X138436900Y-91594147D01*
X138297519Y-91501015D01*
X138178985Y-91382481D01*
X138085853Y-91243100D01*
X138021703Y-91088228D01*
X137989000Y-90923816D01*
X137989000Y-90756184D01*
X138021703Y-90591772D01*
X138085853Y-90436900D01*
X138178985Y-90297519D01*
X138297519Y-90178985D01*
X138436900Y-90085853D01*
X138591772Y-90021703D01*
X138756184Y-89989000D01*
X138923816Y-89989000D01*
X139088228Y-90021703D01*
G37*
G36*
X123848228Y-90021703D02*
G01*
X124003100Y-90085853D01*
X124142481Y-90178985D01*
X124261015Y-90297519D01*
X124354147Y-90436900D01*
X124418297Y-90591772D01*
X124451000Y-90756184D01*
X124451000Y-90923816D01*
X124418297Y-91088228D01*
X124354147Y-91243100D01*
X124261015Y-91382481D01*
X124142481Y-91501015D01*
X124003100Y-91594147D01*
X123848228Y-91658297D01*
X123683816Y-91691000D01*
X123516184Y-91691000D01*
X123351772Y-91658297D01*
X123196900Y-91594147D01*
X123057519Y-91501015D01*
X122938985Y-91382481D01*
X122845853Y-91243100D01*
X122781703Y-91088228D01*
X122749000Y-90923816D01*
X122749000Y-90756184D01*
X122781703Y-90591772D01*
X122845853Y-90436900D01*
X122938985Y-90297519D01*
X123057519Y-90178985D01*
X123196900Y-90085853D01*
X123351772Y-90021703D01*
X123516184Y-89989000D01*
X123683816Y-89989000D01*
X123848228Y-90021703D01*
G37*
G36*
X128813674Y-90053465D02*
G01*
X128851367Y-90064899D01*
X128886103Y-90083466D01*
X128916548Y-90108452D01*
X128941534Y-90138897D01*
X128960101Y-90173633D01*
X128971535Y-90211326D01*
X128976000Y-90256661D01*
X128976000Y-91343339D01*
X128971535Y-91388674D01*
X128960101Y-91426367D01*
X128941534Y-91461103D01*
X128916548Y-91491548D01*
X128886103Y-91516534D01*
X128851367Y-91535101D01*
X128813674Y-91546535D01*
X128768339Y-91551000D01*
X127931661Y-91551000D01*
X127886326Y-91546535D01*
X127848633Y-91535101D01*
X127813897Y-91516534D01*
X127783452Y-91491548D01*
X127758466Y-91461103D01*
X127739899Y-91426367D01*
X127728465Y-91388674D01*
X127724000Y-91343339D01*
X127724000Y-90256661D01*
X127728465Y-90211326D01*
X127739899Y-90173633D01*
X127758466Y-90138897D01*
X127783452Y-90108452D01*
X127813897Y-90083466D01*
X127848633Y-90064899D01*
X127886326Y-90053465D01*
X127931661Y-90049000D01*
X128768339Y-90049000D01*
X128813674Y-90053465D01*
G37*
G36*
X135563674Y-90053465D02*
G01*
X135601367Y-90064899D01*
X135636103Y-90083466D01*
X135666548Y-90108452D01*
X135691534Y-90138897D01*
X135710101Y-90173633D01*
X135721535Y-90211326D01*
X135726000Y-90256661D01*
X135726000Y-91343339D01*
X135721535Y-91388674D01*
X135710101Y-91426367D01*
X135691534Y-91461103D01*
X135666548Y-91491548D01*
X135636103Y-91516534D01*
X135601367Y-91535101D01*
X135563674Y-91546535D01*
X135518339Y-91551000D01*
X134681661Y-91551000D01*
X134636326Y-91546535D01*
X134598633Y-91535101D01*
X134563897Y-91516534D01*
X134533452Y-91491548D01*
X134508466Y-91461103D01*
X134489899Y-91426367D01*
X134478465Y-91388674D01*
X134474000Y-91343339D01*
X134474000Y-90256661D01*
X134478465Y-90211326D01*
X134489899Y-90173633D01*
X134508466Y-90138897D01*
X134533452Y-90108452D01*
X134563897Y-90083466D01*
X134598633Y-90064899D01*
X134636326Y-90053465D01*
X134681661Y-90049000D01*
X135518339Y-90049000D01*
X135563674Y-90053465D01*
G37*
G36*
X133513674Y-90053465D02*
G01*
X133551367Y-90064899D01*
X133586103Y-90083466D01*
X133616548Y-90108452D01*
X133641534Y-90138897D01*
X133660101Y-90173633D01*
X133671535Y-90211326D01*
X133676000Y-90256661D01*
X133676000Y-91343339D01*
X133671535Y-91388674D01*
X133660101Y-91426367D01*
X133641534Y-91461103D01*
X133616548Y-91491548D01*
X133586103Y-91516534D01*
X133551367Y-91535101D01*
X133513674Y-91546535D01*
X133468339Y-91551000D01*
X132631661Y-91551000D01*
X132586326Y-91546535D01*
X132548633Y-91535101D01*
X132513897Y-91516534D01*
X132483452Y-91491548D01*
X132458466Y-91461103D01*
X132439899Y-91426367D01*
X132428465Y-91388674D01*
X132424000Y-91343339D01*
X132424000Y-90256661D01*
X132428465Y-90211326D01*
X132439899Y-90173633D01*
X132458466Y-90138897D01*
X132483452Y-90108452D01*
X132513897Y-90083466D01*
X132548633Y-90064899D01*
X132586326Y-90053465D01*
X132631661Y-90049000D01*
X133468339Y-90049000D01*
X133513674Y-90053465D01*
G37*
G36*
X130863674Y-90053465D02*
G01*
X130901367Y-90064899D01*
X130936103Y-90083466D01*
X130966548Y-90108452D01*
X130991534Y-90138897D01*
X131010101Y-90173633D01*
X131021535Y-90211326D01*
X131026000Y-90256661D01*
X131026000Y-91343339D01*
X131021535Y-91388674D01*
X131010101Y-91426367D01*
X130991534Y-91461103D01*
X130966548Y-91491548D01*
X130936103Y-91516534D01*
X130901367Y-91535101D01*
X130863674Y-91546535D01*
X130818339Y-91551000D01*
X129981661Y-91551000D01*
X129936326Y-91546535D01*
X129898633Y-91535101D01*
X129863897Y-91516534D01*
X129833452Y-91491548D01*
X129808466Y-91461103D01*
X129789899Y-91426367D01*
X129778465Y-91388674D01*
X129774000Y-91343339D01*
X129774000Y-90256661D01*
X129778465Y-90211326D01*
X129789899Y-90173633D01*
X129808466Y-90138897D01*
X129833452Y-90108452D01*
X129863897Y-90083466D01*
X129898633Y-90064899D01*
X129936326Y-90053465D01*
X129981661Y-90049000D01*
X130818339Y-90049000D01*
X130863674Y-90053465D01*
G37*
G36*
X93026000Y-89876000D02*
G01*
X91424000Y-89876000D01*
X91424000Y-88774000D01*
X93026000Y-88774000D01*
X93026000Y-89876000D01*
G37*
G36*
X139088228Y-87481703D02*
G01*
X139243100Y-87545853D01*
X139382481Y-87638985D01*
X139501015Y-87757519D01*
X139594147Y-87896900D01*
X139658297Y-88051772D01*
X139691000Y-88216184D01*
X139691000Y-88383816D01*
X139658297Y-88548228D01*
X139594147Y-88703100D01*
X139501015Y-88842481D01*
X139382481Y-88961015D01*
X139243100Y-89054147D01*
X139088228Y-89118297D01*
X138923816Y-89151000D01*
X138756184Y-89151000D01*
X138591772Y-89118297D01*
X138436900Y-89054147D01*
X138297519Y-88961015D01*
X138178985Y-88842481D01*
X138085853Y-88703100D01*
X138021703Y-88548228D01*
X137989000Y-88383816D01*
X137989000Y-88216184D01*
X138021703Y-88051772D01*
X138085853Y-87896900D01*
X138178985Y-87757519D01*
X138297519Y-87638985D01*
X138436900Y-87545853D01*
X138591772Y-87481703D01*
X138756184Y-87449000D01*
X138923816Y-87449000D01*
X139088228Y-87481703D01*
G37*
G36*
X123848228Y-87481703D02*
G01*
X124003100Y-87545853D01*
X124142481Y-87638985D01*
X124261015Y-87757519D01*
X124354147Y-87896900D01*
X124418297Y-88051772D01*
X124451000Y-88216184D01*
X124451000Y-88383816D01*
X124418297Y-88548228D01*
X124354147Y-88703100D01*
X124261015Y-88842481D01*
X124142481Y-88961015D01*
X124003100Y-89054147D01*
X123848228Y-89118297D01*
X123683816Y-89151000D01*
X123516184Y-89151000D01*
X123351772Y-89118297D01*
X123196900Y-89054147D01*
X123057519Y-88961015D01*
X122938985Y-88842481D01*
X122845853Y-88703100D01*
X122781703Y-88548228D01*
X122749000Y-88383816D01*
X122749000Y-88216184D01*
X122781703Y-88051772D01*
X122845853Y-87896900D01*
X122938985Y-87757519D01*
X123057519Y-87638985D01*
X123196900Y-87545853D01*
X123351772Y-87481703D01*
X123516184Y-87449000D01*
X123683816Y-87449000D01*
X123848228Y-87481703D01*
G37*
G36*
X93026000Y-87376000D02*
G01*
X91424000Y-87376000D01*
X91424000Y-86274000D01*
X93026000Y-86274000D01*
X93026000Y-87376000D01*
G37*
G36*
X123848228Y-84941703D02*
G01*
X124003100Y-85005853D01*
X124142481Y-85098985D01*
X124261015Y-85217519D01*
X124354147Y-85356900D01*
X124418297Y-85511772D01*
X124451000Y-85676184D01*
X124451000Y-85843816D01*
X124418297Y-86008228D01*
X124354147Y-86163100D01*
X124261015Y-86302481D01*
X124142481Y-86421015D01*
X124003100Y-86514147D01*
X123848228Y-86578297D01*
X123683816Y-86611000D01*
X123516184Y-86611000D01*
X123351772Y-86578297D01*
X123196900Y-86514147D01*
X123057519Y-86421015D01*
X122938985Y-86302481D01*
X122845853Y-86163100D01*
X122781703Y-86008228D01*
X122749000Y-85843816D01*
X122749000Y-85676184D01*
X122781703Y-85511772D01*
X122845853Y-85356900D01*
X122938985Y-85217519D01*
X123057519Y-85098985D01*
X123196900Y-85005853D01*
X123351772Y-84941703D01*
X123516184Y-84909000D01*
X123683816Y-84909000D01*
X123848228Y-84941703D01*
G37*
G36*
X139088228Y-84941703D02*
G01*
X139243100Y-85005853D01*
X139382481Y-85098985D01*
X139501015Y-85217519D01*
X139594147Y-85356900D01*
X139658297Y-85511772D01*
X139691000Y-85676184D01*
X139691000Y-85843816D01*
X139658297Y-86008228D01*
X139594147Y-86163100D01*
X139501015Y-86302481D01*
X139382481Y-86421015D01*
X139243100Y-86514147D01*
X139088228Y-86578297D01*
X138923816Y-86611000D01*
X138756184Y-86611000D01*
X138591772Y-86578297D01*
X138436900Y-86514147D01*
X138297519Y-86421015D01*
X138178985Y-86302481D01*
X138085853Y-86163100D01*
X138021703Y-86008228D01*
X137989000Y-85843816D01*
X137989000Y-85676184D01*
X138021703Y-85511772D01*
X138085853Y-85356900D01*
X138178985Y-85217519D01*
X138297519Y-85098985D01*
X138436900Y-85005853D01*
X138591772Y-84941703D01*
X138756184Y-84909000D01*
X138923816Y-84909000D01*
X139088228Y-84941703D01*
G37*
G36*
X93026000Y-84876000D02*
G01*
X91424000Y-84876000D01*
X91424000Y-83774000D01*
X93026000Y-83774000D01*
X93026000Y-84876000D01*
G37*
G36*
X123848228Y-82401703D02*
G01*
X124003100Y-82465853D01*
X124142481Y-82558985D01*
X124261015Y-82677519D01*
X124354147Y-82816900D01*
X124418297Y-82971772D01*
X124451000Y-83136184D01*
X124451000Y-83303816D01*
X124418297Y-83468228D01*
X124354147Y-83623100D01*
X124261015Y-83762481D01*
X124142481Y-83881015D01*
X124003100Y-83974147D01*
X123848228Y-84038297D01*
X123683816Y-84071000D01*
X123516184Y-84071000D01*
X123351772Y-84038297D01*
X123196900Y-83974147D01*
X123057519Y-83881015D01*
X122938985Y-83762481D01*
X122845853Y-83623100D01*
X122781703Y-83468228D01*
X122749000Y-83303816D01*
X122749000Y-83136184D01*
X122781703Y-82971772D01*
X122845853Y-82816900D01*
X122938985Y-82677519D01*
X123057519Y-82558985D01*
X123196900Y-82465853D01*
X123351772Y-82401703D01*
X123516184Y-82369000D01*
X123683816Y-82369000D01*
X123848228Y-82401703D01*
G37*
G36*
X139088228Y-82401703D02*
G01*
X139243100Y-82465853D01*
X139382481Y-82558985D01*
X139501015Y-82677519D01*
X139594147Y-82816900D01*
X139658297Y-82971772D01*
X139691000Y-83136184D01*
X139691000Y-83303816D01*
X139658297Y-83468228D01*
X139594147Y-83623100D01*
X139501015Y-83762481D01*
X139382481Y-83881015D01*
X139243100Y-83974147D01*
X139088228Y-84038297D01*
X138923816Y-84071000D01*
X138756184Y-84071000D01*
X138591772Y-84038297D01*
X138436900Y-83974147D01*
X138297519Y-83881015D01*
X138178985Y-83762481D01*
X138085853Y-83623100D01*
X138021703Y-83468228D01*
X137989000Y-83303816D01*
X137989000Y-83136184D01*
X138021703Y-82971772D01*
X138085853Y-82816900D01*
X138178985Y-82677519D01*
X138297519Y-82558985D01*
X138436900Y-82465853D01*
X138591772Y-82401703D01*
X138756184Y-82369000D01*
X138923816Y-82369000D01*
X139088228Y-82401703D01*
G37*
G36*
X93026000Y-82376000D02*
G01*
X91424000Y-82376000D01*
X91424000Y-81274000D01*
X93026000Y-81274000D01*
X93026000Y-82376000D01*
G37*
G36*
X139088228Y-79861703D02*
G01*
X139243100Y-79925853D01*
X139382481Y-80018985D01*
X139501015Y-80137519D01*
X139594147Y-80276900D01*
X139658297Y-80431772D01*
X139691000Y-80596184D01*
X139691000Y-80763816D01*
X139658297Y-80928228D01*
X139594147Y-81083100D01*
X139501015Y-81222481D01*
X139382481Y-81341015D01*
X139243100Y-81434147D01*
X139088228Y-81498297D01*
X138923816Y-81531000D01*
X138756184Y-81531000D01*
X138591772Y-81498297D01*
X138436900Y-81434147D01*
X138297519Y-81341015D01*
X138178985Y-81222481D01*
X138085853Y-81083100D01*
X138021703Y-80928228D01*
X137989000Y-80763816D01*
X137989000Y-80596184D01*
X138021703Y-80431772D01*
X138085853Y-80276900D01*
X138178985Y-80137519D01*
X138297519Y-80018985D01*
X138436900Y-79925853D01*
X138591772Y-79861703D01*
X138756184Y-79829000D01*
X138923816Y-79829000D01*
X139088228Y-79861703D01*
G37*
G36*
X123848228Y-79861703D02*
G01*
X124003100Y-79925853D01*
X124142481Y-80018985D01*
X124261015Y-80137519D01*
X124354147Y-80276900D01*
X124418297Y-80431772D01*
X124451000Y-80596184D01*
X124451000Y-80763816D01*
X124418297Y-80928228D01*
X124354147Y-81083100D01*
X124261015Y-81222481D01*
X124142481Y-81341015D01*
X124003100Y-81434147D01*
X123848228Y-81498297D01*
X123683816Y-81531000D01*
X123516184Y-81531000D01*
X123351772Y-81498297D01*
X123196900Y-81434147D01*
X123057519Y-81341015D01*
X122938985Y-81222481D01*
X122845853Y-81083100D01*
X122781703Y-80928228D01*
X122749000Y-80763816D01*
X122749000Y-80596184D01*
X122781703Y-80431772D01*
X122845853Y-80276900D01*
X122938985Y-80137519D01*
X123057519Y-80018985D01*
X123196900Y-79925853D01*
X123351772Y-79861703D01*
X123516184Y-79829000D01*
X123683816Y-79829000D01*
X123848228Y-79861703D01*
G37*
G36*
X95273228Y-78381703D02*
G01*
X95428100Y-78445853D01*
X95567481Y-78538985D01*
X95686015Y-78657519D01*
X95779147Y-78796900D01*
X95843297Y-78951772D01*
X95876000Y-79116184D01*
X95876000Y-79283816D01*
X95843297Y-79448228D01*
X95779147Y-79603100D01*
X95686015Y-79742481D01*
X95567481Y-79861015D01*
X95428100Y-79954147D01*
X95273228Y-80018297D01*
X95108816Y-80051000D01*
X94941184Y-80051000D01*
X94776772Y-80018297D01*
X94621900Y-79954147D01*
X94482519Y-79861015D01*
X94363985Y-79742481D01*
X94270853Y-79603100D01*
X94206703Y-79448228D01*
X94174000Y-79283816D01*
X94174000Y-79116184D01*
X94206703Y-78951772D01*
X94270853Y-78796900D01*
X94363985Y-78657519D01*
X94482519Y-78538985D01*
X94621900Y-78445853D01*
X94776772Y-78381703D01*
X94941184Y-78349000D01*
X95108816Y-78349000D01*
X95273228Y-78381703D01*
G37*
G36*
X93026000Y-79876000D02*
G01*
X91424000Y-79876000D01*
X91424000Y-78774000D01*
X93026000Y-78774000D01*
X93026000Y-79876000D01*
G37*
G36*
X123848228Y-77321703D02*
G01*
X124003100Y-77385853D01*
X124142481Y-77478985D01*
X124261015Y-77597519D01*
X124354147Y-77736900D01*
X124418297Y-77891772D01*
X124451000Y-78056184D01*
X124451000Y-78223816D01*
X124418297Y-78388228D01*
X124354147Y-78543100D01*
X124261015Y-78682481D01*
X124142481Y-78801015D01*
X124003100Y-78894147D01*
X123848228Y-78958297D01*
X123683816Y-78991000D01*
X123516184Y-78991000D01*
X123351772Y-78958297D01*
X123196900Y-78894147D01*
X123057519Y-78801015D01*
X122938985Y-78682481D01*
X122845853Y-78543100D01*
X122781703Y-78388228D01*
X122749000Y-78223816D01*
X122749000Y-78056184D01*
X122781703Y-77891772D01*
X122845853Y-77736900D01*
X122938985Y-77597519D01*
X123057519Y-77478985D01*
X123196900Y-77385853D01*
X123351772Y-77321703D01*
X123516184Y-77289000D01*
X123683816Y-77289000D01*
X123848228Y-77321703D01*
G37*
G36*
X139088228Y-77321703D02*
G01*
X139243100Y-77385853D01*
X139382481Y-77478985D01*
X139501015Y-77597519D01*
X139594147Y-77736900D01*
X139658297Y-77891772D01*
X139691000Y-78056184D01*
X139691000Y-78223816D01*
X139658297Y-78388228D01*
X139594147Y-78543100D01*
X139501015Y-78682481D01*
X139382481Y-78801015D01*
X139243100Y-78894147D01*
X139088228Y-78958297D01*
X138923816Y-78991000D01*
X138756184Y-78991000D01*
X138591772Y-78958297D01*
X138436900Y-78894147D01*
X138297519Y-78801015D01*
X138178985Y-78682481D01*
X138085853Y-78543100D01*
X138021703Y-78388228D01*
X137989000Y-78223816D01*
X137989000Y-78056184D01*
X138021703Y-77891772D01*
X138085853Y-77736900D01*
X138178985Y-77597519D01*
X138297519Y-77478985D01*
X138436900Y-77385853D01*
X138591772Y-77321703D01*
X138756184Y-77289000D01*
X138923816Y-77289000D01*
X139088228Y-77321703D01*
G37*
G36*
X95476000Y-78051000D02*
G01*
X92574000Y-78051000D01*
X92574000Y-76449000D01*
X95476000Y-76449000D01*
X95476000Y-78051000D01*
G37*
G36*
X124451000Y-76451000D02*
G01*
X122749000Y-76451000D01*
X122749000Y-74749000D01*
X124451000Y-74749000D01*
X124451000Y-76451000D01*
G37*
G36*
X139088228Y-74781703D02*
G01*
X139243100Y-74845853D01*
X139382481Y-74938985D01*
X139501015Y-75057519D01*
X139594147Y-75196900D01*
X139658297Y-75351772D01*
X139691000Y-75516184D01*
X139691000Y-75683816D01*
X139658297Y-75848228D01*
X139594147Y-76003100D01*
X139501015Y-76142481D01*
X139382481Y-76261015D01*
X139243100Y-76354147D01*
X139088228Y-76418297D01*
X138923816Y-76451000D01*
X138756184Y-76451000D01*
X138591772Y-76418297D01*
X138436900Y-76354147D01*
X138297519Y-76261015D01*
X138178985Y-76142481D01*
X138085853Y-76003100D01*
X138021703Y-75848228D01*
X137989000Y-75683816D01*
X137989000Y-75516184D01*
X138021703Y-75351772D01*
X138085853Y-75196900D01*
X138178985Y-75057519D01*
X138297519Y-74938985D01*
X138436900Y-74845853D01*
X138591772Y-74781703D01*
X138756184Y-74749000D01*
X138923816Y-74749000D01*
X139088228Y-74781703D01*
G37*
G36*
X116976000Y-75851000D02*
G01*
X114074000Y-75851000D01*
X114074000Y-74249000D01*
X116976000Y-74249000D01*
X116976000Y-75851000D01*
G37*
M02*
