G04 #@! TF.GenerationSoftware,KiCad,Pcbnew,(5.1.5)-3*
G04 #@! TF.CreationDate,2020-01-25T10:14:26-08:00*
G04 #@! TF.ProjectId,sdInterface,7364496e-7465-4726-9661-63652e6b6963,rev?*
G04 #@! TF.SameCoordinates,Original*
G04 #@! TF.FileFunction,Copper,L2,Bot*
G04 #@! TF.FilePolarity,Positive*
%FSLAX46Y46*%
G04 Gerber Fmt 4.6, Leading zero omitted, Abs format (unit mm)*
G04 Created by KiCad (PCBNEW (5.1.5)-3) date 2020-01-25 10:14:26*
%MOMM*%
%LPD*%
G04 APERTURE LIST*
%ADD10R,1.600000X1.600000*%
%ADD11O,1.600000X1.600000*%
%ADD12R,1.700000X1.700000*%
%ADD13O,1.700000X1.700000*%
%ADD14C,0.800000*%
%ADD15C,0.250000*%
G04 APERTURE END LIST*
D10*
X101500000Y-70800000D03*
D11*
X116740000Y-98740000D03*
X101500000Y-73340000D03*
X116740000Y-96200000D03*
X101500000Y-75880000D03*
X116740000Y-93660000D03*
X101500000Y-78420000D03*
X116740000Y-91120000D03*
X101500000Y-80960000D03*
X116740000Y-88580000D03*
X101500000Y-83500000D03*
X116740000Y-86040000D03*
X101500000Y-86040000D03*
X116740000Y-83500000D03*
X101500000Y-88580000D03*
X116740000Y-80960000D03*
X101500000Y-91120000D03*
X116740000Y-78420000D03*
X101500000Y-93660000D03*
X116740000Y-75880000D03*
X101500000Y-96200000D03*
X116740000Y-73340000D03*
X101500000Y-98740000D03*
X116740000Y-70800000D03*
D12*
X91400000Y-100600000D03*
D13*
X88860000Y-100600000D03*
X86320000Y-100600000D03*
D14*
X97400000Y-78000000D03*
X97500000Y-85500000D03*
X109700000Y-96150000D03*
X94000000Y-90700000D03*
X105000000Y-73400000D03*
X72400000Y-97300000D03*
X72375000Y-70050000D03*
D15*
X100934999Y-74465001D02*
X97400000Y-78000000D01*
X102550000Y-70800000D02*
X102625001Y-70875001D01*
X101500000Y-70800000D02*
X102550000Y-70800000D01*
X102625001Y-70875001D02*
X102625001Y-73880001D01*
X102625001Y-73880001D02*
X102040001Y-74465001D01*
X102040001Y-74465001D02*
X100934999Y-74465001D01*
X97500000Y-78100000D02*
X97400000Y-78000000D01*
X97500000Y-85500000D02*
X97500000Y-78100000D01*
X108524999Y-97325001D02*
X109700000Y-96150000D01*
X100959999Y-97325001D02*
X108524999Y-97325001D01*
X97500000Y-93865002D02*
X100959999Y-97325001D01*
X97500000Y-85500000D02*
X97500000Y-93865002D01*
X88860000Y-100600000D02*
X88860000Y-95549998D01*
X93709998Y-90700000D02*
X94000000Y-90700000D01*
X88860000Y-95549998D02*
X93709998Y-90700000D01*
X105000000Y-85080000D02*
X101500000Y-88580000D01*
X105000000Y-73400000D02*
X105000000Y-85080000D01*
X72400000Y-97300000D02*
X72400000Y-70075000D01*
X72400000Y-70075000D02*
X72375000Y-70050000D01*
X86320000Y-100600000D02*
X86320000Y-80080000D01*
X93060000Y-73340000D02*
X101500000Y-73340000D01*
X86320000Y-80080000D02*
X93060000Y-73340000D01*
M02*
